<?xml version="1.0" encoding="utf-8"?>
<!-- Generator: Adobe Illustrator 25.0.0, SVG Export Plug-In . SVG Version: 6.00 Build 0)  -->
<svg version="1.1" id="Layer_1" xmlns="http://www.w3.org/2000/svg" xmlns:xlink="http://www.w3.org/1999/xlink" x="0px" y="0px"
	 viewBox="0 0 360 360" style="enable-background:new 0 0 360 360;" xml:space="preserve">
<style type="text/css">
	.st0{fill:#355B8C;}
	.st1{fill:#474F7D;}
	.st2{fill:#FFFFFF;}
	.st3{fill:none;stroke:#000000;stroke-width:14.4148;stroke-linecap:round;stroke-miterlimit:10;}
	.st4{fill:none;stroke:#F26F63;stroke-width:14.4148;stroke-linecap:round;stroke-miterlimit:10;}
</style>
<path class="st0" d="M221.8,326.6c-11.5,3.1-24.1,4.9-38.1,4.9c-28.7,0-52-7.2-71.1-19.1C29.1,260.3,28.4,118.2,28.8,97.1
	c0-1.1,1.3-1.7,2.1-1l61.7,49.7l75.9,61.1l4.9,3.9l0.1,0.1l5.2-3.9l10.1-7.5l1.8-1.3L327.5,96.8c1.4-1,3.4-0.1,3.5,1.6
	C332.2,126.8,335,295.8,221.8,326.6z"/>
<polygon class="st1" points="113.6,28.5 219.5,172.2 165.3,209 60.3,117.6 "/>
<path class="st2" d="M222.1,326.6c-11.5,3.1-24.3,5.4-38.3,5.4c-28.7,0-52.5-7.9-71.6-19.7c2.1-2.1,9.8-8.3,27.6-11.8
	c21.6-4.3,31.8-24.2,26.1-36.3c-5.7-12.1,22.8-28.5,24.2-38.4c1-7.1-6.9-14.9-11.5-18.7c0,0,0-0.1-0.1-0.1c-1.8-1.5-3.1-2.4-3.1-2.4
	s-0.3-3,8.1-5.6c1.4-0.4,3.1-0.2,5.1,0.6c9.7,3.7,24.2,20.2,24.2,29.1c0,10.7-21.4,14.9-18.5,33.5c2.9,18.5,12.8,10.7,25,32
	C224.7,303.1,224.5,315.4,222.1,326.6z"/>
<path class="st3" d="M168.9,202.3"/>
<polyline class="st4" points="31.2,96.7 173.4,210.8 328.4,97.4 "/>
<path class="st2" d="M113.8,40.4L90.7,79.7c0,0,11.3,18.8,30.4,15s17.9,18.1,17.9,19.3s3.7,8.2,11.3,7.6
	c7.6-0.6,14.5-10.7,13.3-12.2S113.8,40.4,113.8,40.4z"/>
</svg>
