<?xml version="1.0" encoding="utf-8"?>
<!-- Generator: Adobe Illustrator 26.1.0, SVG Export Plug-In . SVG Version: 6.00 Build 0)  -->
<svg version="1.1" id="Layer_1" xmlns="http://www.w3.org/2000/svg" xmlns:xlink="http://www.w3.org/1999/xlink" x="0px" y="0px"
	 viewBox="0 0 20 20" style="enable-background:new 0 0 20 20;" xml:space="preserve">
<style type="text/css">
	.st0{fill:#560F0F;}
	.st1{fill:#FFFFFF;}
</style>
<circle class="st0" cx="10" cy="10" r="10"/>
<g>
	<path class="st1" d="M12.8,11.3L7.3,5.8c-0.7-0.7-0.7-1.9,0-2.6l0,0c0.7-0.7,1.9-0.7,2.6,0l5.5,5.5c0.7,0.7,0.7,1.9,0,2.6l0,0
		C14.7,12,13.5,12,12.8,11.3z"/>
	<path class="st1" d="M7.3,14.2l5.5-5.5c0.7-0.7,1.9-0.7,2.6,0l0,0c0.7,0.7,0.7,1.9,0,2.6l-5.5,5.5c-0.7,0.7-1.9,0.7-2.6,0l0,0
		C6.6,16.1,6.6,14.9,7.3,14.2z"/>
</g>
</svg>
