<?xml version="1.0" encoding="utf-8"?>
<!-- Generator: Adobe Illustrator 26.1.0, SVG Export Plug-In . SVG Version: 6.00 Build 0)  -->
<svg version="1.1" id="Layer_1" xmlns="http://www.w3.org/2000/svg" xmlns:xlink="http://www.w3.org/1999/xlink" x="0px" y="0px"
	 viewBox="0 0 360 360" style="enable-background:new 0 0 360 360;" xml:space="preserve">
<style type="text/css">
	.st0{fill:#560F0F;}
	.st1{fill:#BF705E;}
	.st2{fill:none;}
	.st3{enable-background:new    ;}
</style>
<g id="Layer_2_00000110432442112253368730000011314920508848565940_">
</g>
<rect x="166.2" y="147" class="st0" width="4.2" height="18.4"/>
<rect x="126.2" y="163.5" class="st0" width="5.3" height="19.5"/>
<rect x="120.7" y="181.7" class="st0" width="8.8" height="16.7"/>
<rect x="111.6" y="195.9" class="st0" width="14.1" height="42.7"/>
<rect x="183" y="121.9" class="st0" width="9.5" height="26.3"/>
<rect x="190.1" y="85" class="st0" width="8.9" height="37.6"/>
<path class="st1" d="M277.7,195.9v-14.2h-5.6v-18.2h-40V147h-16.8v-25.1h-7.1V85h-5.8l-2-36.8l-2,36.8h-5.8v37h-7.1v25h-16.8v16.4
	h-39.9v18.2h-5.5v14.2h-9.1v42.7h172.6v-42.7h-9.1V195.9z M170.1,224h-8.4v-51.2h8.4V224z M204.7,224h-8.4v-51.2h8.4V224z
	 M240.6,224h-8.4v-51.2h8.4V224z"/>
<line class="st2" x1="178.1" y1="277.7" x2="178.1" y2="278.5"/>
<line class="st2" x1="178.2" y1="278.5" x2="178.1" y2="277.7"/>
<polygon class="st0" points="196.2,85 200.5,48.2 198.5,85 "/>
<rect x="12.8" y="165.4" class="st2" width="316.7" height="146.4"/>
<g class="st3">
	<path d="M175.8,122.2c-0.9,0.9-1.9,2.2-3.4,2.7c-0.6,0.5-1.6,0.8-2.4,1.3c-1.1,0.5-1.6,0.6-2.4,1.1c-1.4,0.6-2.8,1.1-3.9,2
		c-1.4,1.3-3.1,2-4.7,2.7c-0.8,0.2-1.4,0.5-2.2,0.6c-2,0.6-4.1,1.3-6.3,2.5c-0.2,0.2-0.5,0.2-0.6,0.2c-1.6,0-3,0.3-4.5,0.6
		c-1.6,0.5-3.3,0.9-5.2,0.8h-9.6v-0.2h-1.6c-2.4,0-4.7,0-7,0.2c-1.1,0-2-0.3-3-0.5c-0.9-0.3-1.7-0.5-2.7-0.5c-1.7,0-3.8,0-5.6-0.9
		c-0.3-0.2-0.5-0.3-0.6-0.2c-1.7,0.3-3.1-0.2-4.5-0.5c-0.9-0.3-1.7-0.6-2.5-0.6c-1.4,0-2.8-0.5-3.9-0.9c-0.8-0.2-1.6-0.5-2.2-0.6
		c-2.5-0.6-4.9-1.3-7-2c-1.6-0.5-3-0.9-4.5-1.3c-0.8-0.3-1.7-0.5-2.8-0.5c-0.3-0.2-0.6-0.2-0.9-0.2h-0.6c-1.3,0-2.7,0-3.8-0.5
		c-0.2-0.2-0.3-0.2-0.6-0.2c-0.5,0-0.9,0.2-1.4,0.2c-0.9,0.3-2.2,0.6-3.6-0.2c-0.5-0.3-1.1-0.3-2.8-0.2h-1.4c-0.8,0-1.6,0-2.2-0.2
		h-1.9c-0.6,0-1.3,0-1.9,0.2c-0.9,0-2,0.2-2.8,0c-1.9-0.2-3.6,0.3-5.5,0.6c-0.3,0.2-0.6,0.2-1.1,0.3c-0.8,0.2-1.6,0.2-2.2,0.2
		c-2,0-2.8,0-3.8,0.8c-4.5-0.2-8.3,1.9-12.1,4.1c-1.1,0.5-1.6,0.8-2.4,1.3c-2.2,1.1-4.2,2.5-6.3,4.1c-1.1,0.8-1.7,1.3-2.5,1.7
		c-0.6,1.1-1.6,2.2-2.4,3.1c-0.8,0.8-1.1,1.1-1.6,1.7l-0.8,1.3c-1.1,1.6-2.2,3.1-3.6,4.7c-0.2,0.2-0.5,0.5-0.6,0.9
		c-0.2,1.1-0.3,2.2-0.6,3.3c-0.3,1.4-0.6,2.8-0.5,4.2c0.2,1.9,0,3.9-0.2,5.8c0,4.7,3.4,10.8,7.2,13.2c2.5,1.6,4.7,1.6,6.9,0
		c1.9-1.6,4.4-2.4,6.7-3.1c1.1-0.3,2.5,0,3.3,0.8c1.1,0.9,1.4,2.5,0.5,3.3c-2,2.5-4.5,4.1-8,4.5l-2.3,0.5c-1.7,0.5-3.4,0.9-7,0.2
		c-0.3-0.2-0.6-0.2-0.9-0.2c-1.7-0.5-3.3-0.8-4.7-2c-3.4-3-6.4-6-7.8-10.5c0-0.3-0.2-0.5-0.2-0.8c-0.2-0.8-0.3-1.3-0.3-1.9
		c0-0.8-0.2-1.6-0.3-2.3c-0.3-1.7-0.8-3-1.3-4.5c0.3-1.3,0.5-2.5,0.8-3.9c0.2-2.2,0.5-4.4,1.7-6.4c0.6-1.3,1.4-2.5,1.4-4.1
		c0-0.8,0.6-1.6,0.9-2c3.8-5.3,7.4-9.2,11.4-12.4c1.7-1.4,3.8-2.5,5.6-3.6c1.7-0.9,3.3-1.9,4.9-3c0.5-0.3,1.1-0.6,1.7-0.8l14.9-4.2
		c2,0.2,3.8-0.3,5.8-0.6c2.2-0.5,4.4-0.9,6.7-0.6c0.6,0,1.3,0.2,1.7,0.3c1.3,0.5,1.7,0.5,2.5,0.2c1.1-0.8,2.4-0.3,3.3,0
		c0.5,0.3,0.8,0.5,1.1,0.5h0.8c0.5,0,0.8,0.2,1.1,0c2-0.5,4.1-0.9,6.6-0.2c0.6,0.3,1.3,0.3,2,0.3c1.1,0,2.5,0.2,3.6,0.8
		c0.2,0.2,0.3,0.2,1.1,0.2c2-0.3,4.2,0.2,6.9,1.4c0.8,0.5,1.4,0.5,2.8,0.8c1.3,0.2,2.8,0.5,4.1,1.1c3.3,0.3,6.6,1.3,9.6,2.2l3.8,0.9
		c0.3,0.2,0.5,0.2,0.6,0.2c1.1,0.3,1.6,0.5,2.4,0c0.6-0.3,1.7-0.2,2.8,0.3c0.5,0.2,0.8,0.3,1.1,0.3h1.4c0.9,0,2,0,3,0.5
		c0.5,0.2,0.8,0.2,1.6,0c0.5-0.2,1.1-0.3,1.7-0.2c2.2,0.6,4.2,0.9,6.6,0.9c2.7,0,5.3,0,8-0.6c2.7-0.6,5.5-1.1,8.3-1.6
		c1.4-0.2,3-0.6,4.7-1.4l1.1-0.5c1.4-0.8,3-1.6,4.7-1.9c2.5-0.6,4.2-1.7,5.8-3.4c1.9-1.7,4.2-2.8,6.4-3.9c1.4-0.6,3.3,0,4.2,1.3
		C176.5,119.9,176.6,121.4,175.8,122.2z M108.8,139.3c0.5,1.1-1.1,2.8-2.7,3.4l-3.4,1.1h-0.2c-3.1,0.6-5.6,2.3-8.3,4.4
		c-0.9,0.8-1.6,1.1-2.2,1.6c-0.9,0.6-1.6,1.9-2.2,3.3c-0.2,0.2-0.2,0.3-0.3,0.6c0,1.9-0.9,3.4-1.9,4.9c-0.6,0.8-0.9,1.3-1.1,1.9
		c-0.8,1.7-1.6,3.3-1.4,5c0,1.3-0.3,2.5-0.6,3.4c0,0.3-0.2,0.5-0.2,0.8c-0.8,2-1.4,3.8-1.4,6c0,1.1-0.2,1.9-0.6,2.4
		c-1.4,1.3-1.4,3-1.4,4.9c0,0.3-0.2,0.5-0.2,0.8c-0.2,0.8-0.2,1.1-0.3,1.4c-1.1,3-2,6.3-2.8,9.4c-0.3,0.6-0.5,1.3-0.6,2
		c-0.2,1.1-0.3,1.9-0.3,2.7c-0.3,2-0.5,2.5-1.1,3.4c-0.6,0.5-0.9,1.1-0.8,1.7c0.2,0.9,0,1.6-0.8,2.8c-0.3,0.8-0.5,1.3-0.5,1.6
		c0.2,1.3-0.2,2-1.3,3.4l-0.8,1.1c-0.5,0.9-0.8,1.9-1.3,3c-0.3,0.8-0.6,1.3-0.8,1.9c-1.4,3.3-2.5,6.9-5.6,9.7
		c-0.8,1.9-2.2,3.4-3.6,4.7c-1.3,1.3-2.4,2.4-3,3.8c-0.2,0.3-0.6,0.8-1.3,1.1l-0.5,0.5c-1.1,0.8-2.3,1.4-3.1,2.7
		c-1.4,1.7-3.4,2.7-5.5,3.6c-1.3,0.3-1.9,0.6-2.5,1.1l-0.3,0.3c-0.5,0.3-1.1,0.6-1.4,0.6c-1.4,0.2-2.8,0.5-4.1,0.6
		c-1.4,0.2-2.8,0.5-4.2,0.6c-0.5,0-0.9-0.2-1.4-0.2c-0.5,0-0.9-0.2-1.4-0.2c-4.5-0.6-8.6-2.4-11.7-3.8c-0.8-0.3-1.6-0.9-1.7-1.4
		c-0.5-0.9-1.1-1.4-2.2-2.2c-0.9-0.6-2.2-1.4-3-3c-1.3-3.3-1.4-3.4-1.6-3.6c-0.9-0.6-1.1-2.8-0.9-7v-0.9c0-0.6,0.2-1.3,0.8-2.8
		c0.3-0.9,0.6-1.9,0.8-2.8c0.5-1.7,1.9-3.8,4.2-5.8c2-1.9,4.5-1.3,5.8,1.6c0.2,1.3-0.5,2.3-2,4.7c-1.1,1.4-2,3-2.5,4.9
		c-1.6,6,0.6,8,3,10.2c0.5,0.5,0.9,1.1,1.4,1.4c2,2.5,3.1,2.8,4.5,3.3c0.8,0.3,1.9,0.6,2.8,1.3h1.3c0.5-0.2,0.8-0.2,1.1-0.2
		c0.8,0,1.9,0,2.7,0.2c0.5,0,0.9,0.2,1.4,0.3c1.1,0.5,1.3,0.5,1.7,0.2c0.6-0.3,1.6-0.5,2.4-0.8c1.6-0.3,2.8-0.8,3.9-1.9
		c1.1-1.3,2.5-2,3.9-2.3c0.3,0,1.1-0.6,1.4-1.3c0.6-1.1,1.4-2.2,2.4-2.8c0.3-0.5,0.8-0.8,1.1-1.3c0.6-0.5,0.9-0.8,1.4-1.4
		c0.8-1.3,1.7-2.7,2.7-3.9c1.1-1.4,2.2-2.8,3.1-4.5c0.3-0.8,0.9-1.7,1.3-2.5c1.1-2,2.2-4.1,3.6-6.1c0.2-0.3,0.3-0.8,0.5-1.6
		c0.2-1.1,0.2-1.6,0.6-2.2c0.5-0.8,0.6-1.9,0.9-2.8c0.3-1.1,0.5-1.7,0.8-2.5c0.6-1.4,0.8-2,0.6-2.8l2.5-8.6c0.2-1.4,0.8-3.1,1.3-4.7
		c0.3-0.6,0.5-1.4,0.6-2l0.9-2.5c0.6-2.2,1.4-4.2,0.9-6.4c0.6-1.6,0.9-3.3,1.3-5c0.6-3,1.3-6,3.1-8.5c0.6-0.9,0.9-2.2,0.9-3.6
		c-0.2-2,0.5-3.9,1.9-5.2c1.1-1.1,2-2.7,3-4.1c0.9-1.6,1.9-3.1,3.3-4.7c0.5-1.6,1.7-2.8,3.9-3.9c0.5-0.2,1.1-0.5,1.6-0.8
		c2-1.1,3.9-2,6.3-2.5c0.6-0.2,1.4-0.5,2.2-0.8c0.9-0.3,1.4-0.6,2.2-0.8c0.9-0.2,1.9-0.2,2.5,0.2
		C107.5,137.2,108.5,138.2,108.8,139.3z"/>
	<path d="M133.7,208.5c-0.2,0.2-0.3,0.5-0.5,0.9c-0.3,0.8-0.5,1.3-0.9,1.6c-1.1,1.6-2,2.5-3,3.4c-0.8,0.8-1.3,1.3-1.9,2.2
		c-2.2,2.3-4.1,3.8-6.4,4.9c-1.1,0.5-2.2,0.8-2.8,1.7c-4.9,3-7.8,3.1-12.2,3.6h-1.1c-5.5,0.3-11.6-2.7-13.8-7c-1.6-3-2-4.9-1.6-7
		l0.5-3.1c0.2-2,0.3-4.2,1.3-6.3c0.3-0.6,0.6-1.3,0.8-1.9l0.8-2.2c1.1-2.3,2.5-4.1,4.2-5.6c2.4-2.2,4.9-3.1,7.5-3
		c1.4,0,2.5,0.5,3.6,1.6c2.4,2.2,2.8,3.8,1.6,6c-0.5,1.1-0.9,2.3-0.9,3.3c-0.5,4.2-3.1,6.6-6.1,8.8c-0.8,0.6-1.7,0.9-2.7,1.4
		c-0.5,0.2-0.8,0.3-1.3,0.6l-0.6,0.2c-2.3,0.9-1.1,1.1-1.1,3.8l0.2,0.9c0.5,1.4,1.4,2.5,3.3,3.3c4.4,2,6,1.6,9.2,0
		c0.5-0.2,1.3-0.3,1.9-0.6c1.1-0.5,1.7-0.6,2.5-0.9c0.5-0.2,0.8-0.2,1.3-0.5c1.4-1.1,2.7-2,3.9-2.8c2-1.3,3.8-2.4,5.6-4.7l2.3-3
		c0.5-0.6,1.6-1.7,2.4-2.3c1.1-0.8,2.5-0.6,3.6,0.3C134,206.5,134,207.4,133.7,208.5z M97.2,207v0.3c1.7-0.5,3.3-1.7,3.8-3.1
		c0.3-0.9,0.9-1.7,1.4-2.5c0.8-0.9,1.3-1.7,1.3-2.8V198c0-1.1-0.3-2-0.5-1.9c-0.3-0.2-0.9,0.3-1.4,0.8c-0.3,0.2-0.3,0.3-0.6,0.5
		c-0.8,0.6-1.1,1.6-1.7,2.7c-0.2,0.3-0.2,0.5-0.3,0.6c-0.8,1.1-1.1,2.5-1.3,3.9C97.5,205.7,97.5,206.3,97.2,207z"/>
	<path d="M197.1,209l-0.8,1.3c-0.3,0.6-0.5,0.8-0.6,0.9l-2.4,2.5c-1.6,1.7-3,3.1-5.2,4.9c-3.8,3.1-6.6,5.2-12.2,6.9
		c-2.2,0.6-4.7,0.6-7.4,0.3c-3.3-0.2-4.9-1.7-5.6-5c-0.3-1.4-0.6-3.1-0.6-4.7c0.2-1.3,0.3-2.3,0.6-3.6l0.5-2.2l1.1-3.6l-1.4,2
		c-1.4,2-2,2.7-2.5,3.3l-1.7,1.6c-1.1,1.1-2,2-3.1,3.3c-1.7,1.7-4.1,2.7-6.1,3.4c-1.1,0.5-2.5,0.5-3.6,0c-1.3-0.6-1.9-1.4-1.7-2.3
		c0.2-0.5,0.2-1.1,0.2-1.6c0.2-1.4,0.3-2.2,0.6-3.1c0.9-1.6,2-5.2,3.3-9.2c-2,2.2-5.6,6.9-8.9,11.4c-1.7,2.4-3.4,4.7-5.3,7
		c-1.1,1.6-2,3.1-4.2,4.1c-1.4,0.9-3,0.6-4.5-0.5c-1.1-0.8-1.4-1.6-1.1-2.5c0.6-1.6,0.9-3.1,1.1-4.9c0.5-2.3,0.9-4.7,2.2-7
		c0-0.5,0-0.9,0.3-1.6c0.2-0.3,0.2-0.5,0.2-0.8c-0.2-1.1,0.2-2.3,1.3-5.2c0.8-1.6,1.3-3.1,1.3-4.2c0-0.9,0.9-2.2,1.7-3
		c0.5-0.9,1.9-1.3,3.1-1.1c1.3,0.5,2.2,1.3,2.4,2.2c0,0.3,0,0.5,0.2,0.8c0.2,0.9,0.3,1.7,0,2.2c-0.2,0.5-0.6,1.3-1.1,1.7
		c-1.1,1.7-1.4,2.7-1.1,3.4c0.2,0.8-0.8,3.1-1.3,3.8c-0.6,0.9-1.3,3-1.1,3.6c0.5-0.3,0.9-0.8,1.4-1.4c0.3-0.5,0.6-0.8,0.9-1.1
		c0.5-0.5,0.8-0.6,1.1-1.1c1.7-3.3,6.4-9.2,9.2-11.6c2.3-2,5.5-2.3,8.1-0.5c1.6,0.8,2,1.9,1.6,3.3c-0.6,1.4-1.3,4.1-1.9,6.4
		c-0.2,1.1-0.5,2-0.6,2.7c1.7-1.3,3.6-3.6,5.2-5.6c1.1-1.3,1.6-1.9,2.4-2.7c2.2-2.2,3.9-3.3,6.1-4.4c1.1-0.5,2.2-1.3,3.3-2
		c1.4-0.9,3-0.6,4.5,0.5c0.5,0.6,0.9,1.3,0.9,1.7c0.2,1.9-0.2,3.3-1.1,4.7c-1.9,2.8-4.5,8.8-5.5,12.5c-0.3,0.9-0.5,2-0.6,3
		c-0.2,0.9,0.3,1.7,1.4,2.5c1.4,0.9,2.5,0.9,4.1,0.2c2.4-0.9,4.7-1.7,7-3.9c1.1-0.9,2.2-1.7,3.6-2.5c2.3-1.3,3.3-2,4.9-4.7
		c0.6-0.9,1.4-1.6,2-2.3c0.3-0.2,0.5-0.5,0.8-0.8c1.6-1.4,3.1-1.9,4.2-0.8C197.5,206.5,197.8,208.1,197.1,209z M148.7,203.2V203
		V203.2z"/>
	<path d="M177.1,253.8v-0.2l0.5-2v-0.2l3-6.7c0-0.2,0.2-0.3,0.2-0.5c0.3-0.5,0.5-0.8,0.5-1.1c0-2.7,0.8-5.2,2.7-8.1v-1.4
		c-0.2-1.4,0-2,0.6-2.7c0.2-0.2,0.3-0.6,0.5-1.1c0.3-0.6,0.3-0.9,0.6-1.3c0-0.2,0.2-0.3,0.2-0.5c0.3-0.5,0.5-0.8,0.5-1.1
		c0-3,0.9-5.6,1.9-8.1c0.6-1.6,1.3-3.1,1.6-4.9l1.1-3.4c0.8-1.6,1.4-3.1,1.3-5l0.2-0.6c1.4-3.4,1.7-5.3,1.9-7.8
		c0.2-1.6,0.8-2.8,1.4-4.1c0.5-0.8,0.8-1.4,1.1-2.3c0.5-1.1,2.2-1.6,3.4-1.4c1.6,0.2,3,1.6,2.8,3c0,3-0.8,6.4-2.2,9.2
		c-0.2,0.5-0.3,0.9-0.3,1.4c-0.3,1.7-0.9,2.8-1.4,3.9c-0.6,1.1-1.1,2-1.6,3.8c-0.5,1.6-1.1,3.4-1.6,5.2c-0.5,1.6-0.8,3-1.3,4.4v0.2
		c0,0.6-1.6,0.8-0.3,0.6c-0.2,0.3,0.3-0.3,0.5-0.5c0.2-0.2,0.2-0.2,0.2-0.3l0.3-0.3c0.3-0.6,0.8-1.4,1.3-2c0.5-0.9,0.8-1.4,1.3-2
		c0.8-1.4,1.7-2.5,2.8-3.8c0.2-0.3,0.5-0.5,0.6-0.8c0.3-0.5,0.6-0.6,0.9-1.3c0.6-1.4,2.3-3.3,3.8-4.9l2.7-3.3c2.3-3,5-4.9,8.1-5.8
		c1.9-1.4,3.9-0.8,5.5-0.3c0.3,0.2,0.8,0.3,1.1,0.3c1.9,0.5,3.3,1.7,4.2,3.8c1.3,2,1.7,6.3,0.9,8.5c-2.2,5.6-5.8,9.1-11.6,11.4
		c-0.2,0.2-0.2,0.5-0.2,0.6c0,0.2,0.2,0.2,0.2,0.2c3.8,0.5,7,0.9,10.3-0.2c1.4-0.9,3.1-1.7,4.9-2.3c3.1-1.3,7.7-4.7,9.6-7.7
		c0.8-1.3,1.6-1.9,2.3-2.7c0.6-0.5,0.9-0.8,1.4-1.4c0.9-0.6,2-0.9,3.3-0.8c1.6,0.3,2.5,2,1.9,3.6c-1.4,2.8-3.1,4.2-5.3,6.1l-4.1,3.8
		c-0.2,0.3-0.5,0.6-0.8,0.9c-5.2,3.1-9.4,4.9-14.4,6.1c-1.6,0.3-3.3,0.5-4.9,0.5c-0.5,0.2-0.9,0.2-1.6,0.2c-3.1,0-6.3-0.9-9.1-1.7
		c-1.4-0.5-3.1-1.1-4.2-2.7c-0.6-0.8-1.9-1.9-0.9-3.4c0.6-1.3,2-2.2,3.6-2.2c0.3,0,0.5,0,0.6,0.2c0.3,0,0.3,0,0.6,0.2
		c0,0.5,4.1-0.6,4.7-1.3c0.6-0.8,1.6-1.6,2.5-2.4c2-1.6,4.1-3.3,5-6.1c0.3-1.1-0.2-3.8-0.9-5.5c-0.2-0.2-0.3-0.2-0.3-0.2
		c-1.3-0.5-2.4-0.3-3.6,0.3c-2.2,0.9-3.9,2.5-6,5.2c-2,2.8-5.3,7.2-6.9,10.3c-1.9,4.1-4.7,7.7-7.5,11.3c-0.8,1.1-1.4,2.2-1.9,3.3
		c-0.8,2.2-1.7,3.6-2.8,4.9c-0.6,0.5-0.9,1.1-0.9,1.4c-0.8,2.8-2.2,5.5-3.4,8.1c-1.1,2-2,3.9-2.8,6.1c-0.5,0.9-1.1,2.2-1.9,3.1
		c-1.1,1.4-3.4,1.6-4.9,0.5C177.6,255.5,177.1,254.7,177.1,253.8z"/>
	<path d="M250.4,226.5c-1.9-0.9-3.4-1.7-4.2-3.8l-0.9-1.4c-0.2-0.6-0.3-1.1-0.6-1.9c-0.2-0.9-0.5-1.7-0.9-2.3
		c0.2-1.3,0.2-2.5,0.2-3.8c0-1.9,0-3.9,0.8-5.8c0.8-1.7,1.1-3.4,0.9-5.3c0-1.4-0.2-3.1,0.9-4.7c-0.2-2.3,0.6-4.4,1.4-6.4l0.6-1.1
		c0.2-0.3,0.2-0.6,0.2-0.8c-0.5-3.1,0.8-6.1,1.9-8.8c0.6-1.3,0.8-1.9,1.1-2.7l0.5-1.3c0.8-1.7,0.9-2.5,0.8-3.6
		c0-0.6,0.3-1.4,0.6-1.9c1.1-1.3,1.6-3,2-4.7c0.2-0.5,0.2-0.8,0.3-1.4l1.4-2.4c0.6-0.9,1.1-1.9,1.4-3c0.5-1.4,1.7-2.7,2.7-3.8
		c0.6-0.6,0.8-0.8,0.9-1.1c0.6-0.5,1.6-0.8,2.3-0.9c0.6-0.2,1.6,0,2.3,0.2c3.6,0.8,5.2,3.1,4.5,6.7l-0.2,0.6c-0.2,1.1-0.2,1.6,0,2.2
		c0.2,0.5,0.2,1.3,0,1.7c-0.8,1.6-1.4,3.1-1.4,5c-1.6,1.7-1.7,4.1-2,6.7c-0.3,0.8-0.8,1.7-1.3,2.5l-0.3,0.3c-0.8,1.6-1.4,3.1-2,4.9
		c-0.5,1.1-0.6,1.7-0.9,2.5c-0.6,1.6-3.1,8-4.2,9.4l-1.3,2.5c-1.3,2.4-2.7,4.9-4.1,6.9c-0.3,0.6-0.9,1.3-1.4,1.9
		c-1.4,1.9-1.9,2.8-1.9,3.9c0,0.8,0.2,1.3,0.2,1.3v1.3c-0.3,1.1-0.2,1.7,0.2,2.7c0.2,0.6,0.3,1.3,0.3,2.2c0,0.9,0.5,1.7,1.1,1.9
		c0.5,0.2,0.9,0.5,1.6,0.9c1.9,1.1,2.3,1.1,3.6,0.9h1.4c3,0,8-1.9,11.6-6.4l1.6-1.6c1.4-1.6,2.8-3,3.3-4.7c0.3-0.8,0.8-1.4,1.3-2
		c0.3-0.3,0.6-0.6,0.9-1.1c1.1-1.7,2.7-2.2,4.1-1.3c1.4,0.9,1.9,2.7,0.8,4.1l-1.4,2.5c-1.6,2.5-2.7,4.2-4.9,7
		c-1.1,1.6-3.1,2.8-4.7,3.9c-0.9,0.6-1.7,1.1-2.2,1.9c-3.6,1.6-8,3.3-11.7,3h-0.9C254.6,228.1,252,227.3,250.4,226.5z M255,192.9
		c0.5-1.1,2.8-6,4.1-9.6c0.6-1.1,1.1-2.5,1.4-3.8c0.6-1.7,1.1-3.4,2.2-5.2c0.9-1.6,0.9-3.3,1.4-5.2c0.3-1.3,0.5-1.9,0.8-2.7
		c0.5-1.1,0.6-2.4,0.9-3.6c0-0.3-0.2-0.8-0.3-1.1c-0.5-0.2-1.4,1.1-1.7,2.3c-0.5,1.3-1.1,2.4-1.7,3.4c-0.9,1.7-1.9,3.3-1.9,5.3
		c0,0.2,0,0.3-0.2,0.5c0,0.2,0,0.2-0.3,0.5c-0.8,0.9-0.9,2-1.3,3.4c-0.3,1.3-0.8,2.5-1.4,3.9c-1.1,2.8-2.7,5.8-2.8,8.8
		c-0.2,0.9-0.5,2.3-0.8,3.3c-1.4,4.4-0.9,4.4-0.9,4.5C253.1,197.1,253.7,195.8,255,192.9z"/>
	<path d="M320.3,208.5c-0.2,0.2-0.3,0.5-0.5,0.9c-0.3,0.8-0.5,1.3-0.9,1.6c-1.1,1.6-2,2.5-3,3.4c-0.8,0.8-1.3,1.3-1.9,2.2
		c-2.2,2.3-4.1,3.8-6.4,4.9c-1.1,0.5-2.2,0.8-2.8,1.7c-4.9,3-7.8,3.1-12.2,3.6h-1.1c-5.5,0.3-11.6-2.7-13.8-7c-1.6-3-2-4.9-1.6-7
		l0.5-3.1c0.2-2,0.3-4.2,1.3-6.3c0.3-0.6,0.6-1.3,0.8-1.9l0.8-2.2c1.1-2.3,2.5-4.1,4.2-5.6c2.3-2.2,4.9-3.1,7.5-3
		c1.4,0,2.5,0.5,3.6,1.6c2.3,2.2,2.8,3.8,1.6,6c-0.5,1.1-0.9,2.3-0.9,3.3c-0.5,4.2-3.1,6.6-6.1,8.8c-0.8,0.6-1.7,0.9-2.7,1.4
		c-0.5,0.2-0.8,0.3-1.3,0.6l-0.6,0.2c-2.4,0.9-1.1,1.1-1.1,3.8l0.2,0.9c0.5,1.4,1.4,2.5,3.3,3.3c4.4,2,6,1.6,9.2,0
		c0.5-0.2,1.3-0.3,1.9-0.6c1.1-0.5,1.7-0.6,2.5-0.9c0.5-0.2,0.8-0.2,1.3-0.5c1.4-1.1,2.7-2,3.9-2.8c2-1.3,3.8-2.4,5.6-4.7l2.3-3
		c0.5-0.6,1.6-1.7,2.3-2.3c1.1-0.8,2.5-0.6,3.6,0.3C320.6,206.5,320.6,207.4,320.3,208.5z M283.8,207v0.3c1.7-0.5,3.3-1.7,3.8-3.1
		c0.3-0.9,0.9-1.7,1.4-2.5c0.8-0.9,1.3-1.7,1.3-2.8V198c0-1.1-0.3-2-0.5-1.9c-0.3-0.2-0.9,0.3-1.4,0.8c-0.3,0.2-0.3,0.3-0.6,0.5
		c-0.8,0.6-1.1,1.6-1.7,2.7c-0.2,0.3-0.2,0.5-0.3,0.6c-0.8,1.1-1.1,2.5-1.3,3.9C284.1,205.7,284.1,206.3,283.8,207z"/>
</g>
<g class="st3">
	<path class="st0" d="M203.3,263.1h-1.6v-20.2h1.6V263.1z"/>
	<path class="st0" d="M221.1,263.1h-1.6l-9.6-17.2v17.2h-1.6v-20.2h1.6l9.6,17.3v-17.3h1.6V263.1z"/>
	<path class="st0" d="M238.7,263.1h-1.6l-9.6-17.2v17.2H226v-20.2h1.6l9.6,17.3v-17.3h1.6V263.1z"/>
	<path class="st0" d="M252.5,252.1c-0.7-1.1-1.3-2-1.5-2.7c-0.3-0.8-0.4-1.5-0.4-2.2c0-1.4,0.4-2.6,1.1-3.4c0.7-0.8,1.7-1.2,2.9-1.2
		c1.1,0,2,0.4,2.7,1.1c0.7,0.7,1,1.7,1,2.9c0,1.3-0.6,2.6-1.8,3.8l-2,1.8l4.6,6.4c0.7-1.3,1-2.8,1-4.5h1.4c0,2.3-0.5,4.2-1.5,5.8
		l2.4,3.3h-1.9l-1.4-2c-0.6,0.7-1.3,1.3-2.1,1.7c-0.8,0.4-1.6,0.6-2.5,0.6c-1.6,0-2.9-0.5-3.9-1.5c-1-1-1.4-2.3-1.4-4
		c0-1,0.2-1.9,0.7-2.8C250.3,254.3,251.2,253.3,252.5,252.1z M254.4,261.9c1.4,0,2.7-0.7,3.8-2l-4.7-6.6l-0.1-0.2l-0.5,0.5
		c-1.5,1.4-2.2,2.9-2.2,4.3c0,1.2,0.3,2.2,1,2.9C252.3,261.6,253.2,261.9,254.4,261.9z M252.1,247.1c0,1.1,0.5,2.4,1.6,3.9l1.5-1.3
		c0.5-0.4,0.9-0.9,1.2-1.4c0.3-0.5,0.5-1.1,0.5-1.8c0-0.7-0.2-1.3-0.6-1.8c-0.4-0.5-1-0.7-1.6-0.7c-0.7,0-1.3,0.3-1.8,0.9
		C252.3,245.4,252.1,246.2,252.1,247.1z"/>
	<path class="st0" d="M281.1,258.1c0-1.1-0.3-2-1-2.7c-0.6-0.6-1.8-1.3-3.6-1.9c-1.8-0.6-3.1-1.3-3.9-2c-1.1-1-1.6-2.2-1.6-3.8
		c0-1.5,0.5-2.8,1.6-3.8s2.4-1.5,4.1-1.5c1.7,0,3.1,0.6,4.2,1.7c1.1,1.1,1.6,2.6,1.6,4.4H281c0-1.4-0.4-2.5-1.1-3.3
		s-1.8-1.3-3.1-1.3c-1.3,0-2.3,0.3-3,1s-1.1,1.6-1.1,2.7c0,1,0.3,1.9,1,2.5c0.7,0.6,1.8,1.2,3.3,1.7c1.5,0.5,2.7,1,3.4,1.6
		c0.8,0.5,1.4,1.2,1.7,1.9c0.4,0.7,0.6,1.6,0.6,2.6c0,1.6-0.5,2.9-1.6,3.8c-1.1,1-2.5,1.5-4.2,1.5c-1.2,0-2.3-0.2-3.2-0.7
		c-1-0.5-1.7-1.2-2.3-2.1s-0.8-2-0.8-3.2h1.6c0,1.4,0.4,2.6,1.3,3.4c0.9,0.8,2,1.2,3.5,1.2c1.3,0,2.3-0.3,3.1-1
		C280.7,260.2,281.1,259.3,281.1,258.1z"/>
	<path class="st0" d="M298.1,242.8v14.4c0,2-0.5,3.5-1.6,4.5c-1,1.1-2.5,1.6-4.4,1.6c-1.9,0-3.4-0.5-4.5-1.6s-1.6-2.6-1.6-4.6v-14.3
		h1.6v14.3c0,3.2,1.5,4.8,4.4,4.8c2.9,0,4.4-1.6,4.4-4.7v-14.4H298.1z"/>
	<path class="st0" d="M304.5,263.1h-1.6v-20.2h1.6V263.1z"/>
	<path class="st0" d="M321.1,244.3h-5.8v18.7h-1.6v-18.7H308v-1.5h13.1V244.3z"/>
	<path class="st0" d="M333.8,253.4H326v8.2h9v1.5h-10.6v-20.2h10.6v1.5h-9v7.6h7.9V253.4z"/>
	<path class="st0" d="M348,258.1c0-1.1-0.3-2-1-2.7c-0.6-0.6-1.8-1.3-3.6-1.9c-1.8-0.6-3.1-1.3-3.9-2c-1.1-1-1.6-2.2-1.6-3.8
		c0-1.5,0.5-2.8,1.6-3.8s2.4-1.5,4.1-1.5c1.7,0,3.1,0.6,4.2,1.7c1.1,1.1,1.6,2.6,1.6,4.4H348c0-1.4-0.4-2.5-1.1-3.3
		s-1.8-1.3-3.1-1.3c-1.3,0-2.3,0.3-3,1s-1.1,1.6-1.1,2.7c0,1,0.3,1.9,1,2.5c0.7,0.6,1.8,1.2,3.3,1.7c1.5,0.5,2.7,1,3.4,1.6
		c0.8,0.5,1.4,1.2,1.7,1.9c0.4,0.7,0.6,1.6,0.6,2.6c0,1.6-0.5,2.9-1.6,3.8c-1.1,1-2.5,1.5-4.2,1.5c-1.2,0-2.3-0.2-3.2-0.7
		c-1-0.5-1.7-1.2-2.3-2.1s-0.8-2-0.8-3.2h1.6c0,1.4,0.4,2.6,1.3,3.4c0.9,0.8,2,1.2,3.5,1.2c1.3,0,2.3-0.3,3.1-1
		C347.7,260.2,348,259.3,348,258.1z"/>
</g>
</svg>
