<?xml version="1.0" encoding="utf-8"?>
<!-- Generator: Adobe Illustrator 26.1.0, SVG Export Plug-In . SVG Version: 6.00 Build 0)  -->
<svg version="1.1" xmlns="http://www.w3.org/2000/svg" xmlns:xlink="http://www.w3.org/1999/xlink" x="0px" y="0px"
	 viewBox="0 0 360 360" style="enable-background:new 0 0 360 360;" xml:space="preserve">
<style type="text/css">
	.st0{fill:#560F0F;}
	.st1{fill:#BF705E;}
	.st2{fill:none;}
	.st3{font-family:'Braisetto-Bold';}
	.st4{font-size:156.6612px;}
	.st5{font-family:'RobotoCondensed-Light';}
	.st6{font-size:28.4839px;}
</style>
<g id="Layer_2">
</g>
<g id="Layer_1">
	<rect x="166.2" y="147" class="st0" width="4.2" height="18.4"/>
	<rect x="126.2" y="163.5" class="st0" width="5.3" height="19.5"/>
	<rect x="120.7" y="181.7" class="st0" width="8.8" height="16.7"/>
	<rect x="111.6" y="195.9" class="st0" width="14.1" height="42.7"/>
	<rect x="183" y="121.9" class="st0" width="9.5" height="26.3"/>
	<rect x="190.1" y="85" class="st0" width="8.9" height="37.6"/>
	<path class="st1" d="M277.7,195.9v-14.2h-5.6v-18.2h-40V147h-16.8v-25.1h-7.1V85h-5.8l-2-36.8l-2,36.8h-5.8v37h-7.1V147h-16.8v16.4
		h-39.9v18.2h-5.5v14.2h-9.1v42.7h172.6v-42.7H277.7z M170.1,224h-8.4v-51.2h8.4V224z M204.7,224h-8.4v-51.2h8.4V224z M240.6,224
		h-8.4v-51.2h8.4V224z"/>
	<line class="st2" x1="178.1" y1="277.7" x2="178.1" y2="278.5"/>
	<line class="st2" x1="178.2" y1="278.5" x2="178.1" y2="277.7"/>
	<polygon class="st0" points="196.2,85 200.5,48.2 198.5,85 	"/>
	<rect x="12.8" y="165.4" class="st2" width="316.7" height="146.4"/>
	<text transform="matrix(1 0 0 1 12.7563 224.1872)" class="st3 st4">Temple</text>
	<text transform="matrix(1 0 0 1 199.0576 263.0974)" class="st0 st5 st6">INN &amp; SUITES</text>
</g>
</svg>
