<?xml version="1.0" encoding="utf-8"?>
<!-- Generator: Adobe Illustrator 26.1.0, SVG Export Plug-In . SVG Version: 6.00 Build 0)  -->
<svg version="1.1" id="Layer_1" xmlns="http://www.w3.org/2000/svg" xmlns:xlink="http://www.w3.org/1999/xlink" x="0px" y="0px"
	 viewBox="0 0 256 360" style="enable-background:new 0 0 256 360;" xml:space="preserve">
<style type="text/css">
	.st0{fill:#BF705E;}
	.st1{fill:#590202;}
	.st2{fill:#B4B4B5;}
	.st3{fill:#FFFFFF;}
	.st4{fill:#E6EAEE;}
	.st5{fill:none;}
	.st6{enable-background:new    ;}
	.st7{fill:#D9A404;}
</style>
<rect class="st0" width="256" height="360"/>
<polygon class="st1" points="226.9,99.9 256,129 256,288.8 147,179.8 183.7,143.1 "/>
<polygon class="st1" points="256,256.8 256,323.4 111.8,179.2 68.9,136.3 35,102.4 68.3,69.1 "/>
<polygon class="st1" points="256,215.5 256,360 210.8,360 70.9,220.1 28,177.2 122.9,82.3 183.7,143.1 "/>
<polygon class="st2" points="228,100.5 228,100.9 123.3,120 35,102.2 50.9,85.6 40.6,63.5 "/>
<polygon class="st1" points="256,307 256,360 125,360 28,263 120,171 "/>
<polygon class="st2" points="28,177.8 135.9,202.2 226.8,185.2 115.7,159.2 28,176.2 "/>
<polygon class="st2" points="28,261.2 116.9,244 227.7,270 202,281 211.8,303.9 28,262.3 "/>
<polygon class="st3" points="228,100 228,137.5 223,138.5 216.7,139.7 115.7,159.2 28,176.2 28,137.4 121,120 223,100.9 "/>
<polygon class="st3" points="228,185.5 228,222.5 116.8,244 28,261.2 28,222.4 135.9,202.2 226.8,185.2 226.8,185.2 "/>
<polygon class="st4" points="228,185 228,185.5 226.8,185.2 "/>
<polyline class="st5" points="28,176.2 28,177.8 28,222.4 "/>
<polyline class="st5" points="28,261.2 28,262.3 28,297.5 "/>
<line class="st5" x1="28" y1="137.4" x2="28" y2="76"/>
<rect x="56.4" y="128.6" transform="matrix(0.9848 -0.1736 0.1736 0.9848 -23.8155 24.3076)" class="st5" width="141.3" height="39.4"/>
<g class="st6">
	<path class="st7" d="M70.6,156c-0.3,1.3-0.4,2.1-0.3,2.4c0.1,0.5,1.1,0.6,3,0.3l0.1,0.5l-13.6,2.4l-0.1-0.5l1.6-0.4
		c0.7-0.2,1.2-0.5,1.4-0.9s0.6-1.4,0.9-2.9c0.4-1.5,0.8-3.6,1.4-6.4c0.6-2.7,1-5,1.4-6.8s0.7-3.3,0.9-4.4l-0.8,0.2
		c-1.1,0.3-2.4,1.5-4,3.6s-3.1,4.4-4.3,6.7l-0.5,0.1l2.1-9.8l22.6-4l-2.1,9.8l-0.5,0.1c-0.5-2.8-1.2-4.9-2-6.2
		c-0.8-1.4-1.7-2-2.5-1.8l-0.9,0.1L70.6,156z"/>
	<path class="st7" d="M91.5,145.5l-1.5,7.1c-0.3,1.3-0.4,2.1-0.3,2.4c0.1,0.3,0.3,0.5,0.7,0.6c0.4,0,1,0,1.8-0.2l0.1,0.5l-13.1,2.3
		l-0.1-0.5l1.6-0.4c0.7-0.2,1.2-0.5,1.4-0.9c0.3-0.4,0.6-1.3,0.9-2.8c0.3-1.4,0.7-3.1,1.2-5.2c0.4-2,0.8-3.7,1-4.9s0.5-2.5,0.8-4
		c0.3-1.4,0.4-2.3,0.3-2.7c-0.1-0.5-0.3-0.7-0.7-0.7c-0.4,0-1.2,0-2.3,0.2l-0.1-0.5l13.1-2.3l0.1,0.5l-0.9,0.2
		c-0.7,0.2-1.3,0.5-1.5,0.9c-0.3,0.4-0.5,1.3-0.8,2.6l-1.5,6.8l6.7-1.2l1.4-6.7c0.1-0.5,0.2-1,0.2-1.4s0-0.7,0-1
		c-0.1-0.4-0.3-0.7-0.7-0.7c-0.4,0-1,0-1.9,0.2l-0.1-0.5l13.1-2.3l0.1,0.5L109,132c-0.9,0.2-1.5,0.6-1.7,1.1s-0.4,1.4-0.7,2.7
		c-0.3,1.3-0.6,2.8-1,4.5s-0.7,3.3-1,4.9c-0.3,1.6-0.7,3.2-1,4.6c-0.3,1.5-0.4,2.4-0.4,2.7c0.1,0.3,0.3,0.5,0.7,0.5
		c0.4,0,1.2,0,2.3-0.2l0.1,0.5l-13,2.3l-0.1-0.5l1-0.3c0.7-0.2,1.2-0.5,1.4-0.9c0.3-0.4,0.6-1.3,0.9-2.6s0.6-2.5,0.8-3.7
		c0.2-1.1,0.5-2.3,0.7-3.5L91.5,145.5z"/>
	<path class="st7" d="M120.3,141.1c-0.1,0.2-0.3,0.9-0.6,2.1c-0.4,1.2-0.8,2.5-1.4,4.1s-1.3,2.8-2,3.7c-0.8,0.9-1.9,1.5-3.3,1.7
		c-1.2,0.2-2.2,0-3.2-0.5c-0.9-0.6-1.5-1.4-1.7-2.6c-0.2-1.1,0-2.1,0.6-3s1.5-1.4,2.6-1.6c1-0.2,2,0,2.8,0.5s1.3,1.3,1.5,2.3
		c0.1,0.5,0.1,0.9,0,1.3c-0.1,0.4-0.2,0.7-0.4,0.9c-0.2,0.2-0.4,0.5-0.8,0.8s-0.5,0.6-0.5,0.8c0.2,0.1,0.3,0.1,0.3,0.1
		c0.4-0.1,0.9-0.4,1.4-0.9s1-1.3,1.5-2.4c0.5-1.1,0.9-2.3,1.4-3.8s1.1-3.3,1.9-5.5s1.4-3.8,1.9-4.9c0.5-1.1,1.5-2.4,3-3.8
		c1.5-1.4,3.5-2.4,6.1-2.8c1-0.2,1.8-0.3,2.4-0.4c0.6-0.1,1.1-0.1,1.5-0.1l-3.9,18.4c-0.3,1.3-0.4,2.1-0.3,2.4
		c0.1,0.5,0.4,0.7,1,0.6c0.6-0.1,1.3-0.2,2.2-0.3l0.1,0.5l-13.8,2.4l-0.1-0.5c0.2,0,0.5-0.1,0.8-0.2c0.3-0.1,0.7-0.2,1.2-0.3
		s0.8-0.4,1.1-0.8c0.3-0.4,0.6-1.3,0.9-2.6l1.4-6.4L120.3,141.1z M126,139.4l2.2-10.4c-1,0.4-1.9,1-2.7,1.9
		c-0.9,0.9-1.6,1.8-2.1,2.8s-1,2-1.5,3.1c-0.4,1.1-0.9,2.3-1.3,3.6L126,139.4z"/>
	<path class="st7" d="M168.1,121.1l0.1,0.5l-1.4,0.4c-0.7,0.2-1.2,0.6-1.5,1.1c-0.4,0.6-0.7,1.6-1.1,3.2c-0.3,1.6-0.8,3.9-1.5,7.1
		s-1.2,5.5-1.5,7s-0.6,2.7-0.7,3.6l-3.9,0.7l-8.2-17.6c-0.3,1.8-0.5,3.6-0.8,5.3s-0.5,2.9-0.6,3.5s-0.3,1.8-0.7,3.6
		c-0.3,1.7-0.6,3-0.9,3.9c-0.3,0.8-0.7,1.7-1.3,2.7s-1.7,1.6-3.4,1.9c-1.2,0.2-2.2,0-3.2-0.5c-0.9-0.6-1.5-1.4-1.7-2.6
		c-0.2-1.1,0-2.1,0.6-3s1.5-1.4,2.6-1.6c1-0.2,1.9,0,2.8,0.5c0.8,0.5,1.4,1.2,1.5,2.2c0.1,0.4,0.1,0.7,0.1,1s-0.1,0.6-0.1,0.8
		c-0.1,0.3-0.2,0.5-0.4,0.7s-0.2,0.4-0.2,0.6c0,0.2,0.1,0.2,0.3,0.2s0.3-0.1,0.5-0.4c0.2-0.2,0.4-0.6,0.7-1.2
		c0.3-0.6,0.5-1.3,0.7-2.1s0.4-1.9,0.7-3.3c0.3-1.4,0.6-3,0.9-4.9s0.6-3.5,0.8-4.7s0.3-2,0.3-2.4c0-0.3,0-0.6,0-0.8
		c-0.1-0.5-0.4-0.8-0.9-0.8c-0.5-0.1-1.4,0-2.7,0.2l-0.1-0.5l10.4-1.8l6.8,14.2c0.1-0.5,0.3-1.4,0.6-2.6c0.3-1.3,0.5-2.5,0.8-3.6
		c0.2-1.1,0.5-2.4,0.7-3.7c0.3-1.3,0.4-2.2,0.5-2.6c0-0.4,0-0.8,0-1.1c-0.1-0.6-0.5-1-1-1.2c-0.6-0.1-1.5-0.1-2.8,0.1l-0.1-0.5
		L168.1,121.1z"/>
	<path class="st7" d="M177.4,131.4l-1.2,6c-0.3,1.3-0.4,2.1-0.3,2.4c0.1,0.3,0.3,0.5,0.7,0.5s1.2,0,2.3-0.2l0.1,0.5l-13.6,2.4
		l-0.1-0.5l1.6-0.4c0.7-0.2,1.2-0.5,1.4-0.9s0.6-1.3,0.9-2.8c0.3-1.4,0.7-3.1,1.2-5.2c0.4-2,0.8-3.7,1-4.9s0.5-2.5,0.8-4
		c0.3-1.4,0.4-2.3,0.3-2.7c-0.1-0.5-0.3-0.7-0.8-0.7c-0.4,0-0.9,0.1-1.3,0.1c-0.4,0.1-0.8,0.1-1,0.1l-0.1-0.5l13.6-2.4l0.1,0.5
		l-1.5,0.3c-0.9,0.2-1.5,0.6-1.7,1.1s-0.4,1.3-0.7,2.4l-1.7,7.7h0.1c0.7-0.7,1.5-1.6,2.5-2.6c1-1,2.2-2.3,3.5-3.7
		c1.3-1.4,2.3-2.5,2.9-3.1c0.6-0.7,1-1.2,1.2-1.5c0.2-0.4,0.3-0.6,0.2-0.9c0-0.2-0.2-0.4-0.5-0.4s-0.8,0-1.7,0.2l-0.1-0.5l7.5-1.3
		l0.1,0.5c-0.2,0-0.5,0.1-1,0.2c-0.4,0.1-0.9,0.3-1.4,0.6c-0.5,0.3-1,0.6-1.4,1s-1,1-1.9,1.9l-3.6,3.8l4.4,10.8c0.4,1,0.8,1.6,1,2
		c0.3,0.4,0.6,0.6,1.1,0.6c0.4,0,0.8,0,1-0.1s0.5-0.1,0.7-0.1l0.1,0.5l-12.1,2.1l-0.1-0.5l1.3-0.3c0.3-0.1,0.5-0.2,0.6-0.4
		s0.1-0.4,0-0.8c-0.1-0.4-0.5-1.4-1.2-3.2s-1.4-3.5-2.2-5.3L177.4,131.4z"/>
</g>
<rect x="70.9" y="205.7" transform="matrix(0.9816 -0.1908 0.1908 0.9816 -40.4054 31.1485)" class="st5" width="141.3" height="39.4"/>
<g class="st6">
	<path class="st7" d="M93.3,230.8c0.4-1.4,0.8-3,1.3-4.6s1-3.6,1.8-5.8c0.7-2.3,1.6-4.1,2.6-5.5s2.6-2.3,4.8-2.7
		c1.6-0.3,3.2-0.1,4.5,0.7c1.4,0.8,2.2,2,2.5,3.6s0.1,3.1-0.8,4.4c-0.8,1.3-2.1,2.1-3.7,2.4c-1.5,0.3-2.8,0.1-4-0.6
		c-1.2-0.7-2-1.7-2.3-3.1c-0.1-0.5-0.1-0.9-0.1-1.2s0.1-0.6,0.2-1s0.3-0.8,0.5-1.2c0.2-0.5,0.3-0.8,0.2-1.1c0-0.2-0.2-0.3-0.4-0.2
		c-0.3,0.1-0.7,0.4-1.1,0.9c-0.4,0.6-0.8,1.4-1.3,2.6s-1,2.9-1.7,5.3c-0.7,2.4-1.2,4.4-1.6,5.9s-0.7,2.6-0.9,3.4l-1.5,7.8
		c-0.3,1.9-0.5,3.1-0.4,3.6c0.1,0.4,0.5,0.7,1.1,0.7s1.7-0.1,3.2-0.4l0.1,0.7l-19.6,3.8l-0.1-0.7l2.2-0.6c1-0.3,1.7-0.8,2.1-1.4
		c0.4-0.6,0.8-1.9,1.2-3.7c0.4-1.8,0.7-3.5,1-4.9c0.3-1.5,0.6-2.9,0.8-4.2c-0.4-0.7-0.9-1.7-1.6-3s-1.4-2.6-2.1-3.8s-1.5-2.5-2.4-4
		s-1.5-2.4-1.9-2.9c-0.4-0.4-0.9-0.6-1.5-0.6s-1.1,0-1.5,0.1s-0.8,0.1-1.1,0.1l-0.1-0.7l19.3-3.7l0.1,0.7c-1.6,0.5-2.7,0.8-3.3,1.1
		c-0.6,0.2-0.8,0.9-0.6,1.9c0.1,0.5,0.3,1.1,0.8,1.9c0.4,0.8,0.7,1.4,0.9,1.8l4.4,8.3V230.8z"/>
	<path class="st7" d="M143.9,218c0.9,4.7-0.4,9.3-3.9,13.8s-7.8,7.2-13,8.2c-4,0.8-7.5,0.2-10.3-1.8s-4.6-4.8-5.3-8.5
		c-1-4.9,0.3-9.6,3.9-14c3.5-4.4,8.1-7.2,13.6-8.2c3.6-0.7,6.8,0,9.6,2C141.4,211.3,143.2,214.2,143.9,218z M133.6,211
		c-0.2-1.2-0.6-2-1.2-2.5c-0.5-0.5-1.4-0.7-2.5-0.5c-1,0.2-1.8,0.6-2.3,1.2c-0.6,0.6-1.1,1.5-1.7,2.9c-0.6,1.3-1.2,3.2-1.8,5.6
		c-0.6,2.4-1.1,4.7-1.5,6.9s-0.7,4.4-0.9,6.6c-0.2,2.2-0.2,4,0.1,5.2c0.2,1.2,0.6,2,1.2,2.5c0.5,0.5,1.4,0.7,2.5,0.5
		c1-0.2,1.8-0.6,2.3-1.2c0.6-0.6,1.1-1.5,1.7-2.8c0.6-1.3,1.2-3.2,1.8-5.7s1.2-5.1,1.6-7.6c0.5-2.6,0.7-4.8,0.9-6.7
		S133.8,211.9,133.6,211z"/>
	<path class="st7" d="M177.4,205.7c0.1-0.7,0.2-1.4,0.3-2.3c0.1-0.9,0.1-1.5,0-1.9c-0.2-0.9-0.6-1.5-1.4-1.6c-0.7-0.2-2-0.1-3.7,0.2
		l-0.1-0.7L185,197l0.1,0.7l-2.7,0.7c-1,0.3-1.8,0.9-2.3,1.6s-1,2.4-1.5,4.9s-1,5.4-1.6,8.8c-0.6,3.4-1.2,6.1-1.8,8.2
		c-0.6,2.1-1.5,4.2-3,6.4c-1.4,2.2-4.4,3.7-8.9,4.6c-3.7,0.7-6.6,0.4-8.9-0.8c-2.2-1.3-3.6-3.1-4-5.5c-0.1-0.5-0.1-1-0.1-1.5
		c0.1-0.5,0.3-1.9,0.7-4l2.4-12.5c0.3-1.7,0.4-2.8,0.3-3.3c-0.1-0.6-0.5-0.9-1.1-1s-1.7,0.1-3.3,0.4l-0.1-0.7l19.7-3.8l0.1,0.7
		l-2.1,0.5c-1.3,0.4-2.1,0.9-2.4,1.7c-0.3,0.8-0.6,2.1-1,4s-0.7,3.8-1.1,5.7c-0.4,1.9-0.8,4-1.2,6.4c-0.5,2.4-0.7,3.9-0.8,4.5
		s-0.2,1.3-0.2,2c0,0.8,0,1.4,0.1,1.9c0.3,1.3,0.9,2.3,1.8,2.9c1,0.6,2.1,0.8,3.4,0.6c1.7-0.3,3.2-1,4.5-1.9c1.3-1,2.2-2,2.8-3.2
		s1-2.3,1.3-3.3s0.6-1.9,0.7-2.6c0.2-0.7,0.6-3.1,1.3-7.3C176.9,208.4,177.3,206.1,177.4,205.7z"/>
	<path class="st7" d="M185.3,224.2c-0.2-1.1,0-2.1,0.7-3c0.6-0.9,1.5-1.5,2.7-1.7c1.1-0.2,2.2,0,3.1,0.6c1,0.6,1.5,1.5,1.8,2.6
		c0.2,1.1,0,2.2-0.6,3.1c-0.6,0.9-1.5,1.5-2.7,1.7c-1.1,0.2-2.2,0-3.1-0.6C186.1,226.2,185.5,225.4,185.3,224.2z M196.4,205.8
		c-1.6,2.4-2.8,4.2-3.5,5.5s-1.5,3.4-2.1,6.1l-0.6-0.1c0.2-1.5,0.3-3,0.3-4.4s-0.1-2.6-0.3-3.7l-1.2-5.7c-0.4-2.1-0.1-4,1-5.8
		s2.4-2.8,3.9-3.1c0.9-0.2,1.8,0.2,2.6,1.1c0.8,0.9,1.4,2,1.6,3.4c0.2,1.2,0.2,2.3-0.2,3.4C197.5,203.8,197,204.8,196.4,205.8z"/>
</g>
</svg>
