<?xml version="1.0" encoding="utf-8"?>
<!-- Generator: Adobe Illustrator 26.0.3, SVG Export Plug-In . SVG Version: 6.00 Build 0)  -->
<svg version="1.1" id="Layer_1" xmlns="http://www.w3.org/2000/svg" xmlns:xlink="http://www.w3.org/1999/xlink" x="0px" y="0px"
	 viewBox="0 0 360 360" style="enable-background:new 0 0 360 360;" xml:space="preserve">
<style type="text/css">
	.st0{fill:#FFFFFF;}
	.st1{stroke:#FFFFFF;stroke-miterlimit:10;}
</style>
<rect width="360.3" height="360.3"/>
<path class="st0" d="M109,143.7H41.9c0,0-3.1,0-8,4s-3.6,8-3.6,8l-0.2,28.9c0,0,0.6,8,4.2,11.6c3.6,3.6,11.1,4.4,11.1,4.4h57.8
	l5.8-11.1l-65.3-0.9l-4-4.4l1.3-26.2l4-4l57.3,0.4L109,143.7z"/>
<path class="st0" d="M138.8,200.6l32.9-54.7c0,0,2-3.1,10-3.1c8,0,11.4,3.2,11.4,3.2l32.8,54.6h-13.3l-10.7-17.8l-40,0.4l-9.8,17.3
	H138.8z"/>
<polygon class="st0" points="162.8,130.3 197.4,130.3 203.2,138.8 158.8,138.8 "/>
<path class="st0" d="M332.6,143.7l-6.2,11.6H269l-4,2.2v27.1l2.2,3.6h50.7c0,0,3.6-0.9,3.6-3.6s-0.4-6.7-0.4-6.7h-33.8l6.7-12h38.7
	v19.6c0,0-1.8,9.3-6.2,11.6c-4.4,2.2-9.3,3.6-9.3,3.6h-50.2c0,0-7.6-1.3-9.8-5.3s-4.4-8-4.4-8V157c0,0,0.9-5.3,5.3-10.2
	c4.4-4.9,7.1-3.1,7.1-3.1H332.6z"/>
<path class="st0" d="M180.1,238.8l152.4-24.4c0,0,0.4-0.3,0.4-1.5c0-1.1-1.3-1.6-1.3-1.6H30.2c0,0-0.9,0.5-0.9,1.7
	C29.4,214.3,176.9,239.3,180.1,238.8z"/>
<path class="st1" d="M169.4,172.1h24.4l-7-14.8c0,0-1-2.1-5.3-2.1c-2.4,0-4.5,2.7-4.5,2.7L169.4,172.1z"/>
</svg>
