<?xml version="1.0" encoding="utf-8"?>
<!-- Generator: Adobe Illustrator 26.0.3, SVG Export Plug-In . SVG Version: 6.00 Build 0)  -->
<svg version="1.1" id="Layer_1" xmlns="http://www.w3.org/2000/svg" xmlns:xlink="http://www.w3.org/1999/xlink" x="0px" y="0px"
	 viewBox="0 0 613.3 791.1" style="enable-background:new 0 0 613.3 791.1;" xml:space="preserve">
<style type="text/css">
	.st0{fill:#5B5B5B;}
</style>
<g transform="translate(0.000000,640.000000) scale(0.100000,-0.100000)">
	<path class="st0" d="M5367.4,2387.9c-32.6,30.5-85.4,66.1-127.9,86.3c-60.3,28.7-109.8,37-195.4,32.5c-48.1-2.8-98.6-1.2-137.9,4.3
		c-105.5,15.3-228.3,39.3-243.6,47.7c-11.7,6.6-320.7,279-1002.1,883.7c-59.6,52.7-201.4,178.5-373,330.7
		c-57.5,50.5-151,134.1-208.7,185c-57.1,50.8-138.5,122.6-179.5,159.5c-41.5,36.6-273.9,242.4-516.4,457.1
		c-242.1,215-454,404.5-470,422.1c-43,45.2-121.8,154.3-134.6,186.7c-5.9,14.1-18.8,54.8-29.3,89.3c-15.7,53.9-19.4,77.3-22.9,153.3
		c-8.6,182.2-14.1,207.4-54,266.7c-46.3,68.9-108.1,121.3-239.2,204.3c-31.7,20.3-119.9,81.5-195.7,136l-137.5,99.7l-79.2-32.8
		c-43.6-18.5-84.4-37.5-91.2-42.7l-11.6-9.6l142.2-214.1c127.8-191.8,142.6-215.6,140.8-226.5c-2.6-20.4-44.6-113.8-63.8-141.7
		c-20.3-29.9-34.2-40.5-122.1-89.9l-61.9-34.4l-42.6,5.1c-23.6,2.8-58.1,6.7-76.9,8.6c-56.9,5.7-50.9-0.5-164.3,167.3
		c-54.8,80.6-117.3,177.2-139.4,213.6l-40.2,67l-74.5-30.8c-41.1-16.8-86.9-39.2-102.3-49.5c-24.5-16.5-27.8-20.5-27.9-32
		c0.6-35.8,64.4-371.8,93.3-494.6c34.3-143.3,46.5-178.4,75.8-222c30.6-46.3,48.9-62.9,84.2-77.7c50.7-20.7,169.2-48.3,317.7-73.8
		c107.7-18.6,239.3-51.2,287.9-71.5c132.8-55.9,301.2-178.3,521.4-378.5c47.5-42.8,446.1-392.9,886.7-777.5s937.9-819.6,1105-966.9
		l303.9-267.4l80-92c69.4-79.9,88.8-106,149.6-196.5c62.2-92.5,92.8-144.3,111.7-189.4c14.3-33.8,22.2-70.6,36.7-171.1
		c18.7-129,30.9-167.8,72.9-231.2c37.8-57.1,54.4-70.1,147.6-112.9c37.4-17,103.9-54.2,148.3-81.7c88.3-55.1,145.8-85.1,182-95.1
		c26.2-7.7,47.4-2.4,123,30.3c44.2,19.4,107,62.3,109.5,75.5c0.8,4.2-48.4,83.7-137.5,219.7L4846,1728.8l9.7,38.5
		c4.9,21.4,18.9,61.5,30.2,89.6s22.9,60,25.1,71.1c6,26.9,25.1,45.2,105,103.7c75.4,55.5,78.7,55.9,126.6,28.5l27.5-15.8
		l138.8-203.7l138.8-203.7l11.4,2.8c6.4,1.3,38.6,13.3,71.9,26.6l60.1,23.5l8.8,31.8c20,72.5-19.3,226.8-119.6,470.9
		C5439.8,2290.1,5402.8,2355,5367.4,2387.9z"/>
</g>
<g transform="translate(0.000000,640.000000) scale(0.100000,-0.100000)">
	<path d="M4726.3,6090c-33.1-29.9-73-79.6-96.7-120.3c-33.7-57.7-46.1-106.4-48.7-192c-1.2-48.2-7-98.4-15.8-137
		c-24-103.8-58.3-224.2-67.9-238.7c-7.6-11.1-304.8-296.3-964.4-924.7c-57.5-54.9-194.7-185.7-360.7-344
		c-55.2-53-146.2-139.3-201.8-192.6c-55.4-52.6-133.7-127.7-173.9-165.6c-39.9-38.3-264.5-252.6-498.7-476.4
		c-234.5-223.3-441.1-418.6-459.9-433.1c-48.6-39.1-163.9-108.5-197.3-118.5c-14.6-4.7-56.2-14.1-91.5-21.8
		c-55-11.2-78.7-12.9-154.7-10c-182.3,6.6-207.9,3.3-270.3-31.5c-72.5-40.4-129.9-97.6-223.6-221.3
		c-22.8-29.9-91.2-112.6-151.8-183.6l-110.9-128.7l26-81.7c14.8-45,30.3-87.3,34.9-94.5l8.6-12.4l225.2,123.8
		c201.8,111.3,226.8,124.1,237.4,121.4c20.1-4.3,109.6-54,135.9-75.4c28.1-22.7,37.5-37.5,79.4-129.2l29.1-64.5l-8.6-42
		c-4.8-23.3-11.5-57.4-15-75.9c-10.5-56.2-3.8-50.8-180.4-149.7c-84.9-47.9-186.4-102.1-224.5-121l-70.1-34.5l24.5-76.8
		c13.3-42.4,31.8-89.9,40.8-106.1c14.4-25.8,18.1-29.4,29.6-30.5c35.7-2.4,375.9,33.1,500.6,51.7c145.6,22.2,181.7,31.4,227.6,56.9
		c48.7,26.6,66.8,43.5,84.5,77.4c24.9,48.8,62.3,164.6,100.1,310.4c27.5,105.8,71,234.2,95.3,280.9
		c66.8,127.7,202.8,285.3,420.7,487.9c46.6,43.7,428.8,411.7,848.9,818.6s895.1,866.1,1055.9,1020.4l291.9,280.5l98.4,72
		c85.4,62.5,113.1,79.6,208.3,132.6c97.4,54.3,151.5,80.4,198.1,95.5c34.9,11.4,72.2,16.2,173.6,22.3
		c130.1,7.8,169.8,16.8,236.4,53.3c60.1,32.9,74.4,48.3,124.8,137.6c20.1,35.8,62.7,99,93.8,140.9c62.3,83.4,97,138.2,110,173.5
		c9.8,25.5,6.4,47.1-19.9,125.1c-15.7,45.6-53.1,111.8-66,115.5c-4.1,1.2-87.5-41.3-230.4-118.6l-223.6-120.6l-37.5,12.9
		c-20.9,6.7-59.7,24-86.7,37.5s-57.9,27.9-68.8,31c-26.3,8.2-42.9,28.7-94.6,113.3c-49,79.7-49.1,83.1-17.8,128.6l18.1,26.1
		l214.6,121.3l214.6,121.3l-1.9,11.6c-0.7,6.5-10.1,39.6-20.5,73.8l-18.4,61.8l-30.9,11.4c-70.5,25.9-227.6-0.3-479.2-79.8
		C4829.8,6154,4762,6122.5,4726.3,6090z"/>
</g>
<g>
	<path d="M148.9,571.4c-0.4,5.7-1.9,10-4.6,12.6c-2.7,2.7-6.5,4-11.3,4c-4.9,0-8.8-1.9-11.7-5.6c-2.9-3.7-4.3-8.8-4.3-15.2v-11.1
		c0-6.4,1.5-11.5,4.4-15.2s6.9-5.5,12-5.5c4.8,0,8.5,1.4,11.1,4.1c2.6,2.7,4.1,6.9,4.5,12.6h-4.1c-0.4-4.6-1.5-8-3.3-9.9
		c-1.8-2-4.6-3-8.2-3c-3.9,0-6.9,1.4-9,4.3c-2.2,2.9-3.2,7.1-3.2,12.6v11c0,5.4,1,9.7,3.1,12.7c2.1,3,5,4.5,8.8,4.5c4,0,6.9-1,8.6-3
		c1.8-2,2.8-5.3,3.2-9.9H148.9z"/>
	<path d="M173,553c-0.9-0.2-1.8-0.2-2.5-0.2c-2.2,0-4,0.7-5.4,2.2c-1.5,1.5-2.5,3.5-3.1,6.2v26.3h-3.9v-38h3.8l0.1,5.7
		c1.9-4.3,4.8-6.4,8.7-6.4c1,0,1.8,0.2,2.4,0.5L173,553z"/>
	<path d="M177.7,566.4c0-5.5,1.2-9.8,3.7-13c2.5-3.2,5.9-4.8,10.2-4.8c4.3,0,7.7,1.6,10.2,4.7c2.5,3.1,3.7,7.5,3.7,13v4
		c0,5.6-1.2,9.9-3.7,13s-5.9,4.7-10.1,4.7c-4.2,0-7.6-1.5-10.1-4.6c-2.5-3-3.8-7.2-3.9-12.6V566.4z M181.6,570.3
		c0,4.4,0.9,7.8,2.7,10.3c1.8,2.5,4.2,3.8,7.4,3.8c3.2,0,5.7-1.2,7.4-3.6c1.7-2.4,2.6-5.9,2.6-10.4v-4c0-4.4-0.9-7.8-2.7-10.3
		c-1.8-2.5-4.2-3.8-7.3-3.8c-3,0-5.4,1.2-7.2,3.7c-1.8,2.5-2.7,5.8-2.7,10.1V570.3z"/>
	<path d="M233.5,578c0-1.6-0.7-3.1-2-4.3c-1.4-1.2-3.7-2.6-6.9-4c-3.2-1.5-5.5-2.7-6.8-3.7c-1.3-1-2.2-2-2.8-3.2
		c-0.6-1.1-0.9-2.5-0.9-4.1c0-2.9,1.1-5.3,3.2-7.3s4.8-2.9,8.2-2.9c3.6,0,6.5,1,8.6,3.1c2.2,2,3.2,4.7,3.2,8.1h-3.9
		c0-2.2-0.7-3.9-2.2-5.4s-3.4-2.1-5.8-2.1c-2.3,0-4.1,0.6-5.5,1.8c-1.3,1.2-2,2.7-2,4.6c0,1.5,0.5,2.8,1.5,3.7c1,1,3.3,2.3,6.7,3.9
		c3.5,1.5,6,2.8,7.3,3.8s2.3,2.1,3,3.4c0.7,1.2,1,2.7,1,4.4c0,3.1-1.1,5.6-3.3,7.5s-5.1,2.8-8.6,2.8c-3.8,0-6.8-1-9.2-3.1
		c-2.3-2.1-3.5-4.7-3.5-8h3.9c0.1,2.4,0.9,4.2,2.4,5.5c1.5,1.3,3.6,1.9,6.3,1.9c2.4,0,4.3-0.6,5.8-1.8
		C232.8,581.5,233.5,579.9,233.5,578z"/>
	<path d="M265.6,578c0-1.6-0.7-3.1-2-4.3s-3.7-2.6-6.9-4c-3.2-1.5-5.5-2.7-6.8-3.7s-2.2-2-2.8-3.2s-0.9-2.5-0.9-4.1
		c0-2.9,1.1-5.3,3.2-7.3s4.8-2.9,8.2-2.9c3.6,0,6.5,1,8.6,3.1s3.2,4.7,3.2,8.1h-3.9c0-2.2-0.7-3.9-2.2-5.4s-3.4-2.1-5.8-2.1
		c-2.3,0-4.1,0.6-5.5,1.8s-2,2.7-2,4.6c0,1.5,0.5,2.8,1.5,3.7s3.3,2.3,6.7,3.9c3.5,1.5,6,2.8,7.3,3.8s2.3,2.1,3,3.4s1,2.7,1,4.4
		c0,3.1-1.1,5.6-3.3,7.5s-5.1,2.8-8.6,2.8c-3.8,0-6.8-1-9.2-3.1s-3.5-4.7-3.5-8h3.9c0.1,2.4,0.9,4.2,2.4,5.5
		c1.5,1.3,3.6,1.9,6.3,1.9c2.4,0,4.3-0.6,5.8-1.8S265.6,579.9,265.6,578z"/>
	<path d="M304,573.4l1.2,7.6l1.5-7.2l9.2-37.6h3.6l9,37.6l1.5,7.3l1.3-7.7l7.6-37.3h4.1l-10.9,51.2h-3.8l-9.6-39.9l-1-4.7l-1,4.7
		l-9.8,39.9h-3.8l-10.9-51.2h4.1L304,573.4z"/>
	<path d="M364.6,553c-0.9-0.2-1.8-0.2-2.5-0.2c-2.2,0-4,0.7-5.4,2.2s-2.5,3.5-3.1,6.2v26.3h-3.9v-38h3.8l0.1,5.7
		c1.9-4.3,4.8-6.4,8.7-6.4c1,0,1.8,0.2,2.4,0.5L364.6,553z"/>
	<path d="M384,588c-4.5,0-8-1.5-10.5-4.4s-3.8-7.1-3.9-12.5v-4.6c0-5.6,1.2-10,3.7-13.1s5.8-4.8,10.1-4.8c4.1,0,7.3,1.3,9.4,4
		s3.3,6.8,3.3,12.4v3.7h-22.6v2.1c0,4.4,0.9,7.7,2.8,10.1s4.5,3.6,7.9,3.6c3.8,0,6.8-1.4,9.1-4.1l2,2.6
		C392.8,586.3,389.1,588,384,588z M383.3,552.2c-3.1,0-5.4,1.1-7.1,3.3s-2.6,5.3-2.7,9.5h18.7v-1C392,556.2,389.1,552.2,383.3,552.2
		z"/>
	<path d="M408.1,549.3l0.1,6c1.1-2.1,2.6-3.7,4.3-4.9s3.7-1.8,6-1.8c6.6,0,10,4.4,10.2,13.3v25.5h-3.9v-25.1c0-3.4-0.6-5.9-1.8-7.5
		s-3-2.4-5.5-2.4c-2,0-3.9,0.8-5.5,2.3s-2.9,3.6-3.7,6.3v26.4h-3.9v-38H408.1z"/>
	<path d="M451.1,584.4c2.7,0,4.8-0.8,6.3-2.3c1.5-1.5,2.2-3.7,2.4-6.5h3.8c-0.2,3.9-1.4,6.9-3.7,9.2s-5.2,3.3-8.6,3.3
		c-4.5,0-7.9-1.4-10.2-4.3s-3.5-7.2-3.5-12.9v-4.6c0-5.8,1.2-10.2,3.5-13.1s5.7-4.4,10.3-4.4c3.8,0,6.8,1.2,8.9,3.6s3.3,5.7,3.5,10
		h-3.8c-0.1-3.1-0.9-5.6-2.4-7.3s-3.6-2.6-6.3-2.6c-3.4,0-5.9,1.1-7.4,3.4s-2.4,5.8-2.4,10.5v4.3c0,4.9,0.8,8.4,2.4,10.6
		S447.7,584.4,451.1,584.4z"/>
	<path d="M475.6,555.3c1.1-2,2.5-3.7,4.3-4.9s3.7-1.8,5.9-1.8c6.6,0,10,4.4,10.2,13.3v25.5h-3.9v-25.1c0-3.4-0.6-5.9-1.8-7.5
		s-3-2.4-5.5-2.4c-2,0-3.9,0.8-5.5,2.3s-2.9,3.6-3.7,6.3v26.4h-3.9v-54h3.9V555.3z"/>
	<path class="st0" d="M173.5,659h-30.9l-4.6,9.6c-0.6,1.3-0.9,2.4-0.9,3.1c0,1.5,1.1,2.5,3.3,3v1.6h-22.5v-1.6
		c1.3-0.3,2.3-0.7,3-1.4c0.7-0.7,1.5-2,2.4-3.9l25-52.2c0.8-1.7,1.2-3,1.2-4c0-1.5-1-2.6-2.9-3.3v-1.6h24.1v1.6
		c-2,0.6-2.9,1.5-2.9,2.9c0,1,0.3,2.1,0.9,3.3l25.9,52.4c1.1,2.2,2.1,3.7,2.9,4.6c0.8,0.8,1.9,1.4,3.3,1.6v1.6h-25v-1.6
		c2.2-0.4,3.3-1.4,3.3-3.1c0-0.7-0.3-1.7-1-3.1L173.5,659z M169.2,649.7l-11-24.2L147,649.7H169.2z"/>
	<path class="st0" d="M291.7,613.6v38.1c0,7.2-1.3,12.6-4,16.2c-4.8,6.4-14.7,9.7-29.6,9.7c-10.8,0-19.1-1.7-24.9-5.2
		c-3.4-2-5.7-4.8-7-8.3c-1.3-3.5-1.9-7.6-1.9-12.4v-38.1c0-1-0.2-1.8-0.7-2.3c-0.5-0.5-1.3-1-2.5-1.3v-1.6h21.2v1.6
		c-1.2,0.3-2,0.7-2.5,1.3c-0.5,0.5-0.7,1.3-0.7,2.4v33.9c0,3.9,0.2,6.8,0.6,8.7c0.4,1.9,1.2,3.4,2.4,4.7c3.2,3.4,8.6,5.1,16.3,5.1
		c7.7,0,13.2-1.7,16.4-5.1c1.2-1.3,2-2.8,2.4-4.7c0.4-1.9,0.6-4.8,0.6-8.7v-33.9c0-1-0.2-1.8-0.7-2.3c-0.5-0.5-1.3-1-2.5-1.3v-1.6
		h20v1.6c-1.2,0.3-2,0.8-2.5,1.3C291.9,611.8,291.7,612.6,291.7,613.6z"/>
	<path class="st0" d="M361.8,619.6v51.5c0,1,0.2,1.8,0.7,2.3c0.5,0.5,1.3,1,2.5,1.3v1.6h-21.2v-1.6c1.2-0.3,2-0.8,2.5-1.3
		c0.5-0.5,0.7-1.3,0.7-2.3v-51.5h-21.1c-1,0-1.8,0.2-2.3,0.7c-0.5,0.5-1,1.3-1.3,2.5h-1.6v-17.6h1.6c0.4,1.2,0.8,2,1.3,2.5
		c0.5,0.5,1.3,0.7,2.3,0.7h57c1,0,1.8-0.2,2.3-0.7c0.5-0.5,1-1.3,1.3-2.5h1.6v17.6h-1.6c-0.3-1.2-0.8-2-1.3-2.5
		c-0.5-0.5-1.3-0.7-2.3-0.7H361.8z"/>
	<path class="st0" d="M452,607.2c11.9,0,21.3,3.2,28.2,9.6c7.3,6.7,11,15.4,11,26c0,6.5-1.8,12.6-5.3,18.2
		c-6.9,11-18.2,16.5-33.8,16.5c-11.8,0-21.1-3.2-28.1-9.6c-3.7-3.4-6.5-7.5-8.5-12.3c-1.7-4.2-2.5-8.6-2.5-13.3
		c0-6.8,1.7-13,5.2-18.7C424.9,612.9,436.2,607.4,452,607.2z M452,618.7c-6.5,0-11.9,1.9-16.2,5.8c-5.1,4.5-7.7,10.5-7.7,17.9
		c0,7.4,2.6,13.3,7.7,17.9c4.3,3.8,9.8,5.8,16.3,5.8c6.5,0,12-1.9,16.3-5.8c2.6-2.3,4.5-5.1,5.9-8.4c1.2-3,1.8-6,1.8-9.2
		c0-7.7-2.6-13.7-7.7-18.2C464,620.7,458.6,618.8,452,618.7z"/>
</g>
</svg>
