<?xml version="1.0" encoding="utf-8"?>
<!-- Generator: Adobe Illustrator 26.0.3, SVG Export Plug-In . SVG Version: 6.00 Build 0)  -->
<svg version="1.1" id="Layer_1" xmlns="http://www.w3.org/2000/svg" xmlns:xlink="http://www.w3.org/1999/xlink" x="0px" y="0px"
	 viewBox="0 0 360 360" style="enable-background:new 0 0 360 360;" xml:space="preserve">
<style type="text/css">
	.st0{fill:#E5AC63;}
	.st1{fill:#1C5A2D;}
	.st2{fill:#EFD087;}
	.st3{fill:#513A20;}
</style>
<g>
	<path class="st0" d="M280.2,222.6H77.9c-29.7,0-53.9-24.3-53.9-53.9v-24.2c0-29.7,24.3-53.9,53.9-53.9h202.3
		c29.7,0,53.9,24.3,53.9,53.9v24.2C334.1,198.3,309.8,222.6,280.2,222.6z"/>
	<ellipse class="st1" cx="43.1" cy="163.2" rx="26.8" ry="18.2"/>
	<ellipse class="st1" cx="79.5" cy="164.2" rx="26.8" ry="18.2"/>
	<ellipse class="st1" cx="115.9" cy="163.2" rx="26.8" ry="18.2"/>
	<ellipse class="st1" cx="161.8" cy="163.2" rx="26.8" ry="18.2"/>
	<ellipse class="st1" cx="205.8" cy="164.2" rx="26.8" ry="18.2"/>
	<ellipse class="st1" cx="242.2" cy="164.2" rx="26.8" ry="18.2"/>
	<ellipse class="st1" cx="280.5" cy="164.2" rx="26.8" ry="18.2"/>
	<ellipse class="st1" cx="316.9" cy="164.2" rx="26.8" ry="18.2"/>
	<path class="st2" d="M129.2,99.3c-23.8-12.8-57.5-6.1-57.5-6.1s44.5,19.1,45.3,29.4C135.7,124.6,153.1,112.1,129.2,99.3z"/>
	<path class="st2" d="M194.2,99.3c-23.8-12.8-57.5-6.1-57.5-6.1s44.5,19.1,45.3,29.4C200.7,124.6,218.1,112.1,194.2,99.3z"/>
	<path class="st2" d="M265.2,99.3c-23.8-12.8-57.5-6.1-57.5-6.1s44.5,19.1,45.3,29.4C271.6,124.6,289,112.1,265.2,99.3z"/>
	<g>
		<path class="st3" d="M158.5,33.3c4.2,11.7,8.5,24.5,12.4,36.3c3.2,9.1,6.3,18.1,7.6,27.7c0.5,3.2,0.9,6.4,0.9,9.7l-0.6,0.2
			c-4.7-8.5-8.1-17.5-10.3-26.9c-1.1-5.4-3-13.2-4.3-18.7c-2.1-9-4.4-19-6.3-28.1C157.9,33.5,158.5,33.3,158.5,33.3L158.5,33.3z"/>
	</g>
</g>
<g>
	<path class="st1" d="M38.5,280.6v-40h16.6c11.8,0,17.7,6.7,17.7,20c0,13.3-6.1,20-18.3,20H38.5z M50.1,277.3h3
		c2.8,0,4.7-1.2,5.8-3.6c1.1-2.4,1.6-6.8,1.6-13.1S60.1,250,59,247.6c-1.1-2.4-3-3.6-5.8-3.6h-3V277.3z"/>
	<path class="st1" d="M89.5,240.6v40H77.9v-40H89.5z"/>
	<path class="st1" d="M108.1,240.6v36h16.4v4h-28v-40H108.1z"/>
	<path class="st1" d="M138.6,240.6v36H155v4h-28v-40H138.6z"/>
	<path class="st1" d="M185.4,240.6l-9.8,25.2v14.8h-11.6v-14.8l-10.8-25.2h12l8.1,19.3l7.3-19.3H185.4z"/>
	<path class="st1" d="M206.1,280.6v-40h16.6c11.8,0,17.7,6.7,17.7,20c0,13.3-6.1,20-18.3,20H206.1z M217.7,277.3h3
		c2.8,0,4.7-1.2,5.8-3.6c1.1-2.4,1.6-6.8,1.6-13.1s-0.5-10.7-1.6-13.1c-1.1-2.4-3-3.6-5.8-3.6h-3V277.3z"/>
	<path class="st1" d="M271.3,240.6v4H257v12.1h12v4h-12v15.8h16.8v4h-28.4v-40H271.3z"/>
	<path class="st1" d="M289,240.6v36h16.4v4h-28v-40H289z"/>
	<path class="st1" d="M319.5,240.6v40h-11.6v-40H319.5z"/>
</g>
</svg>
