<?xml version="1.0" encoding="utf-8"?>
<!-- Generator: Adobe Illustrator 25.0.0, SVG Export Plug-In . SVG Version: 6.00 Build 0)  -->
<svg version="1.1" id="Layer_1" xmlns="http://www.w3.org/2000/svg" xmlns:xlink="http://www.w3.org/1999/xlink" x="0px" y="0px"
	 viewBox="0 0 44.2 44.4" style="enable-background:new 0 0 44.2 44.4;" xml:space="preserve">
<style type="text/css">
	.st0{fill:#1877F2;}
	.st1{fill:#FFFFFF;}
</style>
<path class="st0" d="M41.8,22.3c0-10.9-8.8-19.7-19.7-19.7c-10.9,0-19.7,8.8-19.7,19.7c0,9.8,7.2,18,16.6,19.4V28h-5v-5.7h5V18
	c0-4.9,2.9-7.7,7.4-7.7c2.2,0,4.4,0.4,4.4,0.4v4.8h-2.5c-2.4,0-3.2,1.5-3.2,3.1v3.7h5.5L29.7,28h-4.6v13.7
	C34.6,40.3,41.8,32.2,41.8,22.3L41.8,22.3z"/>
<path class="st0" d="M-44.3-38"/>
<path class="st1" d="M19,41.7V28h-5v-5.7h5V18c0-4.9,2.9-7.7,7.4-7.7c2.2,0,4.4,0.4,4.4,0.4v4.8h-2.5c-2.4,0-3.2,1.5-3.2,3.1v3.7
	h5.5L29.7,28h-4.6v13.7"/>
</svg>
