<?xml version="1.0" encoding="utf-8"?>
<!-- Generator: Adobe Illustrator 25.0.0, SVG Export Plug-In . SVG Version: 6.00 Build 0)  -->
<svg version="1.1" id="Layer_1" xmlns="http://www.w3.org/2000/svg" xmlns:xlink="http://www.w3.org/1999/xlink" x="0px" y="0px"
	 viewBox="0 0 44.2 44.4" style="enable-background:new 0 0 44.2 44.4;" xml:space="preserve">
<style type="text/css">
	.st0{fill:#1877F2;}
	.st1{fill:#FFFFFF;}
</style>
<path class="st0" d="M44.2,22.3c0-12.2-9.9-22.1-22.1-22.1S0,10.1,0,22.3c0,11,8.1,20.2,18.6,21.8V28.7H13v-6.4h5.6v-4.8
	c0-5.5,3.3-8.6,8.3-8.6c2.5,0,4.9,0.4,4.9,0.4v5.4h-2.8c-2.7,0-3.6,1.7-3.6,3.5v4.2h6.2l-1,6.4h-5.2v15.4
	C36.1,42.5,44.2,33.4,44.2,22.3L44.2,22.3z"/>
<path class="st0" d="M-44.3-38"/>
<path class="st1" d="M18.6,44.1V28.7H13v-6.4h5.6v-4.8c0-5.5,3.3-8.6,8.3-8.6c2.5,0,4.9,0.4,4.9,0.4v5.4h-2.8
	c-2.7,0-3.6,1.7-3.6,3.5v4.2h6.2l-1,6.4h-5.2v15.4"/>
</svg>
