<?xml version="1.0" encoding="utf-8"?>
<!-- Generator: Adobe Illustrator 26.0.3, SVG Export Plug-In . SVG Version: 6.00 Build 0)  -->
<svg version="1.1" id="Layer_1" xmlns="http://www.w3.org/2000/svg" xmlns:xlink="http://www.w3.org/1999/xlink" x="0px" y="0px"
	 viewBox="0 0 360 360" style="enable-background:new 0 0 360 360;" xml:space="preserve">
<style type="text/css">
	.st0{fill:#FFFFFF;stroke:#000000;stroke-width:4.9627;stroke-miterlimit:10;}
	.st1{fill:#49BC8B;}
	.st2{fill:none;}
	.st3{font-family:'Mistral';}
	.st4{font-size:84px;}
</style>
<g>
	<path class="st0" d="M105.6,59.3c0,0-11.8,123.5,0,151.9s27.9-60.6,46.1-76c9.8-8.3,9.8-8.3,18.6-8.3c8.8,0,8.8-0.8,19.6,10.9
		c10.8,11.7,4.9,78.6,19.6,78.5s34.3-117.8,38.2-157c3.9-39.2-35.3-40.2-48.6-33.3c-7.1,3.6-18.2,9.8-25,9.8
		c-6.8,0-21.5-12.5-43.1-12.6S105.6,59.3,105.6,59.3z"/>
	<g>
		<path d="M142.6,44.7c12.9,1,25.6,3.5,38.2,6.3c12.6,2.9,25.1,6.2,37.2,10.9c-12.9-1-25.6-3.5-38.2-6.3
			C167.2,52.6,154.8,49.3,142.6,44.7L142.6,44.7z"/>
	</g>
	<g>
		<path d="M139,62.6c11.3-4.5,22.9-7.6,34.7-10.4c11.8-2.7,23.7-5,35.8-5.9c-11.3,4.5-22.9,7.6-34.7,10.4
			C162.9,59.4,151.1,61.7,139,62.6L139,62.6z"/>
	</g>
	<g>
		<path class="st1" d="M25.2,32.8c21.2,33.1,41.3,66.4,65.3,97.5c11.5,13.9,31.2,39.4,50.3,39.8c9.6-0.2,16.2-8,21-15.8
			c5-9.1,11.9-18.6,21.5-23.3c-8.1,6.9-12.6,16.3-16.4,25.9c-6,14.4-18,25.5-34.7,21.7c-14-3.3-25.1-13-35-22.8
			c-14.8-15.5-27.1-33.1-38-51.5C45.8,81.6,34.1,57.7,25.2,32.8L25.2,32.8z"/>
	</g>
	<g>
		<path class="st1" d="M347.1,178.3c-6.4,14.5-21.1,24.4-37.1,23.7c-1.2,0-3.6-0.2-4.7-0.4c-1.7-0.1-3.5-0.3-5.2-0.8
			c-6.4-1.9-11.8-6-16.6-10.4c-4.7-4.2-8.8-8.8-12.8-13.4c-11.8-13.8-21.8-28.3-34.5-41.4c25.2,7.4,41.4,32.4,57.4,51.1
			c3.7,4,7.3,8.5,12.5,10.3C322.2,200.7,338.4,192.9,347.1,178.3L347.1,178.3z"/>
	</g>
</g>
<rect x="100.4" y="229" class="st2" width="135.7" height="73.5"/>
<text transform="matrix(1 0 0 1 100.3805 284.1035)" class="st1 st3 st4">floss</text>
</svg>
