<?xml version="1.0" encoding="utf-8"?>
<!-- Generator: Adobe Illustrator 25.0.0, SVG Export Plug-In . SVG Version: 6.00 Build 0)  -->
<svg version="1.1" id="Layer_1" xmlns="http://www.w3.org/2000/svg" xmlns:xlink="http://www.w3.org/1999/xlink" x="0px" y="0px"
	 viewBox="0 0 44 43.7" style="enable-background:new 0 0 44 43.7;" xml:space="preserve">
<style type="text/css">
	.st0{fill:#26ACE1;}
	.st1{fill:#FFFFFF;}
</style>
<g>
	<circle class="st0" cx="22" cy="21.9" r="21.9"/>
	<circle class="st1" cx="13.8" cy="9.7" r="2.8"/>
	<rect x="10.9" y="14.3" class="st1" width="5.8" height="15.9"/>
	<path class="st1" d="M34.8,19.5v10.8h-5.2v-9.7c-0.3-1.3-1.5-2.4-2.7-2.4c-1,0-1.9,0.7-2.5,1.7c-0.1,0.3-0.3,0.7-0.3,1v1.5l0,0l0,0
		v8H19V14.3h5.2v2.6c0.7-1.6,2.6-2.8,4.8-2.8c1.5,0,2.7,0.4,3.7,1.2l0,0C34.1,16.4,34.8,17.8,34.8,19.5z"/>
	<path class="st1" d="M24.2,22.3L24.2,22.3C24.2,22.4,24.2,22.3,24.2,22.3L24.2,22.3z"/>
	<path class="st1" d="M24.2,22.3L24.2,22.3C24.2,22.4,24.2,22.3,24.2,22.3L24.2,22.3z"/>
</g>
</svg>
