<?xml version="1.0" encoding="utf-8"?>
<!-- Generator: Adobe Illustrator 25.0.0, SVG Export Plug-In . SVG Version: 6.00 Build 0)  -->
<svg version="1.1" id="Layer_1" xmlns="http://www.w3.org/2000/svg" xmlns:xlink="http://www.w3.org/1999/xlink" x="0px" y="0px"
	 viewBox="0 0 44 43.7" style="enable-background:new 0 0 44 43.7;" xml:space="preserve">
<style type="text/css">
	.st0{fill:#26ACE1;}
	.st1{fill:#FFFFFF;}
</style>
<g>
	<circle class="st0" cx="22" cy="21.9" r="19.5"/>
	<circle class="st1" cx="14.7" cy="11.1" r="2.5"/>
	<rect x="12.1" y="15.2" class="st1" width="5.2" height="14.2"/>
	<path class="st1" d="M33.5,19.8v9.6h-4.6v-8.7c-0.3-1.2-1.3-2.1-2.4-2.1c-0.9,0-1.7,0.6-2.2,1.5c-0.1,0.3-0.3,0.6-0.3,0.9v1.3h0
		c0,0,0,0,0,0v7.1h-4.6V15.2H24v2.3c0.6-1.4,2.3-2.5,4.3-2.5c1.3,0,2.4,0.4,3.3,1.1c0,0,0,0,0,0C32.8,17,33.5,18.3,33.5,19.8z"/>
	<path class="st1" d="M24,22.3L24,22.3C24,22.4,24,22.3,24,22.3L24,22.3z"/>
	<path class="st1" d="M24,22.3L24,22.3C24,22.4,24,22.3,24,22.3L24,22.3z"/>
</g>
</svg>
