<?xml version="1.0" encoding="utf-8"?>
<!-- Generator: Adobe Illustrator 26.0.3, SVG Export Plug-In . SVG Version: 6.00 Build 0)  -->
<svg version="1.1" id="Layer_1" xmlns="http://www.w3.org/2000/svg" xmlns:xlink="http://www.w3.org/1999/xlink" x="0px" y="0px"
	 viewBox="0 0 360 360" style="enable-background:new 0 0 360 360;" xml:space="preserve">
<style type="text/css">
	.st0{fill:#ED1C24;}
	.st1{fill:#FBB040;}
	.st2{fill:#FFF200;}
	.st3{fill:#1C75BC;}
	.st4{fill:#2BB673;}
	.st5{fill:#9E1F63;}
	.st6{fill:#2E3192;}
	.st7{fill:none;}
	.st8{font-family:'AbrilFatface-Regular';}
	.st9{font-size:52px;}
</style>
<polygon class="st0" points="185.7,63.6 185.7,93 233.5,93 233.5,118.3 259.5,118.3 259.5,140.8 262.9,140.8 262.9,93 310.8,93 
	310.8,63.6 262.9,63.6 262.9,15.7 233.5,15.7 233.5,63.6 "/>
<rect x="233.5" y="118.3" class="st1" width="25.9" height="22.5"/>
<path class="st2" d="M113.2,126.5v11.7h54.1v10.4h92.2v-7.8h-25.9v-22.5h-97.4c-2,6.2-7.8,10.6-14.7,10.6
	C118.4,128.9,115.6,128,113.2,126.5z"/>
<polygon class="st3" points="75.5,138.2 75.5,159.9 167.3,159.9 167.3,148.6 113.2,148.6 113.2,138.2 "/>
<rect x="113.2" y="138.2" class="st4" width="54.1" height="10.4"/>
<path class="st4" d="M113.2,118.3v8.2c2.4,1.5,5.3,2.4,8.3,2.4c6.8,0,12.7-4.5,14.7-10.6H113.2z"/>
<path class="st3" d="M106,113.5c0,5.5,2.8,10.3,7.1,13v-8.2h23c0.5-1.5,0.8-3.2,0.8-4.9c0-8.5-6.9-15.5-15.5-15.5
	C112.9,98,106,104.9,106,113.5z"/>
<path class="st3" d="M126.2,189.9l-9.5,9.5c1.5,0.5,3.1,0.8,4.8,0.8c8.5,0,15.5-6.9,15.5-15.5s-6.9-15.5-15.5-15.5
	c-4.4,0-8.4,1.8-11.2,4.8L126.2,189.9z"/>
<path class="st5" d="M50.9,223.8L17,257.7l20.7,20.7l33.9-33.9l33.9,33.9l20.7-20.7l-33.9-33.9l24.4-24.4c-6.2-2-10.7-7.8-10.7-14.7
	c0-4.1,1.6-7.9,4.3-10.7l-4.8-4.8l-33.9,33.9l-33.9-33.9L17,189.9L50.9,223.8z"/>
<path class="st6" d="M106,184.7c0,6.9,4.5,12.7,10.7,14.7l9.5-9.5L110.3,174C107.6,176.8,106,180.5,106,184.7z"/>
<rect x="167.3" y="180.7" class="st7" width="162.8" height="57.1"/>
<text transform="matrix(1 0 0 1 167.27 219.7166)" class="st8 st9">Math</text>
<rect x="168.6" y="226.1" class="st7" width="172.7" height="56.3"/>
<text transform="matrix(1 0 0 1 168.5697 265.1241)" class="st8 st9">Xpress</text>
</svg>
