<?xml version="1.0" encoding="utf-8"?>
<!-- Generator: Adobe Illustrator 26.1.0, SVG Export Plug-In . SVG Version: 6.00 Build 0)  -->
<svg version="1.1"
	 id="svg7019" xmlns:cc="http://creativecommons.org/ns#" xmlns:dc="http://purl.org/dc/elements/1.1/" xmlns:rdf="http://www.w3.org/1999/02/22-rdf-syntax-ns#" xmlns:svg="http://www.w3.org/2000/svg"
	 xmlns="http://www.w3.org/2000/svg" xmlns:xlink="http://www.w3.org/1999/xlink" x="0px" y="0px" viewBox="0 0 467.9 427"
	 style="enable-background:new 0 0 467.9 427;" xml:space="preserve">
<style type="text/css">
	.st0{fill:#FF0000;}
</style>
<g id="layer1" transform="translate(-361.68805,-462.29359)">
	<g id="g6005" transform="matrix(4.1485983,0,0,-4.1485983,519.62538,515.60327)">
		<path id="path6007" class="st0" d="M0-32.3h-12.6v12.6h-12.6v-12.6h-12.6v-12.6h12.6v-12.6h12.6v12.6H0L0-32.3z"/>
	</g>
	<g id="g5943" transform="matrix(5.2716063,0,0,-5.2716063,590.48265,547.35171)">
		<path id="path5945" d="M0-25.4h-1v1.7h1c0.3,0,1.1,0,1.1-0.8C1.1-25.4,0.3-25.4,0-25.4 M1.7-26.5l0.1,0c0.3,0.1,0.6,0.2,0.8,0.5
			c0.3,0.3,0.5,0.8,0.5,1.4c0,0.7-0.3,1.6-1.2,2c-0.4,0.2-1.1,0.2-1.7,0.2H-3v-6.9H-1v2.5h0.8l1.4-2.5h2.3
			C3.3-29.1,1.8-26.5,1.7-26.5C1.8-26.5,1.7-26.5,1.7-26.5z"/>
	</g>
	<g id="g5947" transform="matrix(5.2716063,0,0,-5.2716063,654.88796,547.40814)">
		<path id="path5949" d="M0-25.4c0.3,0,0.6-0.2,0.8-0.6c0.1-0.2,0.1-0.4,0.1-0.7c0-0.3,0-0.8-0.3-1.1C0.4-27.9,0.2-28,0-28
			c-0.2,0-0.4,0.1-0.6,0.2c-0.2,0.2-0.3,0.6-0.3,1c0,0.2,0,0.4,0.1,0.6v0v0C-0.6-25.5-0.1-25.4,0-25.4 M-2.7-26.6
			c0-1.7,0.9-2.8,2.2-2.8c0.3,0,0.5,0,0.7,0.1c0.3,0.1,0.4,0.2,0.5,0.4l0.1,0.1v-0.5h1.8v6.9H0.8v-2.1v-0.2l-0.1,0.1
			c-0.2,0.2-0.5,0.5-1.2,0.5C-1.6-24.1-2.7-24.9-2.7-26.6"/>
	</g>
	<g id="g5951" transform="matrix(5.2716063,0,0,-5.2716063,619.21025,550.32802)">
		<path id="path5953" d="M0-25.4c0,0.2,0.2,0.8,0.8,0.8c0.3,0,0.6-0.2,0.7-0.6l0-0.1l0-0.2L0-25.4L0-25.4z M1.9-26.9
			c-0.2-0.5-0.6-0.7-1-0.7c-0.2,0-0.4,0-0.7,0.3C0-27.1,0-26.8,0-26.6l0,0.1h3.6c0,0.8,0,1.6-0.8,2.3c-0.6,0.6-1.4,0.8-2,0.8
			c-1.6,0-2.7-1.1-2.7-2.7c0-0.7,0.2-1.4,0.7-1.9c0.5-0.5,1.2-0.9,2.1-0.9c1.1,0,2,0.6,2.6,1.4C3.3-27.5,2-26.9,1.9-26.9"/>
	</g>
	<g id="g5955" transform="matrix(5.2716063,0,0,-5.2716063,589.89431,505.90743)">
		<path id="path5957" d="M0-25.4l0.8,2.7l0.8-2.7H0z M2.4-27.9h2.2C4.5-27.8,2-21.1,2-21h-2.3c0-0.1-2.6-6.8-2.6-6.9h2.2l0.3,1h2.5
			L2.4-27.9"/>
	</g>
	<g id="g5959" transform="matrix(5.2716063,0,0,-5.2716063,634.81265,503.09866)">
		<path id="path5961" d="M0-25.4c0-0.1,0-0.2,0-0.3v-2.7h1.9v2.7c0,0.1,0,0.3,0.1,0.5c0.1,0.2,0.3,0.4,0.7,0.4
			c0.8,0,0.7-0.6,0.7-0.9v-2.7h1.9c0,0.1,0,3.3,0,3.3l0,0c0,0.5,0,1-0.5,1.4c-0.3,0.3-0.8,0.5-1.4,0.5c-1.2,0-1.5-0.6-1.6-0.9
			l-0.1-0.1l-0.1,0.1c-0.1,0.3-0.3,0.5-1,0.7c-0.3,0.1-0.6,0.1-0.8,0.1c-1,0-1.3-0.5-1.5-0.8l-0.1-0.2v0.9h-1.8v-5.1h1.9v2.8l0,0
			c0,0.2,0,0.4,0.2,0.6c0.1,0.1,0.3,0.2,0.6,0.2C-0.4-24.9-0.1-25,0-25.4"/>
	</g>
	<g id="g5963" transform="matrix(5.2716063,0,0,-5.2716063,677.14837,501.737)">
		<path id="path5965" d="M0-25.4c0,0.2,0.2,0.8,0.8,0.8c0.3,0,0.6-0.2,0.7-0.6l0-0.1l0-0.2L0-25.4L0-25.4z M1.9-26.9
			c-0.2-0.5-0.6-0.7-1-0.7c-0.2,0-0.4,0-0.7,0.3C0-27.1,0-26.8,0-26.6l0,0.1h3.6c0,0.8,0,1.6-0.8,2.3c-0.6,0.6-1.4,0.8-2,0.8
			c-1.6,0-2.7-1.1-2.7-2.7c0-0.7,0.2-1.4,0.7-1.9c0.5-0.5,1.2-0.9,2.1-0.9c1.1,0,2,0.6,2.6,1.4C3.3-27.5,2-26.9,1.9-26.9"/>
	</g>
	<g id="g5967" transform="matrix(5.2716063,0,0,-5.2716063,709.11963,492.19706)">
		<path id="path5969" d="M0-25.4h-1.8v-5.1h1.9v2.4v0c0,0.3,0,1.2,1.3,1.2c0.1,0,0.3,0,0.4,0v1.6c-0.7,0-1.1-0.1-1.7-0.6L0-26V-25.4
			z"/>
	</g>
	<path id="path5971" d="M722,626.4h10.7v26.9H722V626.4z M722,616.6h10.7v7.1H722V616.6z"/>
	<g id="g5973" transform="matrix(5.2716063,0,0,-5.2716063,761.376,515.71577)">
		<path id="path5975" d="M0-25.4c0.2,0.2,0.4,0.5,0.5,0.7C0.4-24.6-0.8-24-1-23.9c-0.1-0.3-0.4-0.9-1-0.9c-0.4,0-0.9,0.2-0.9,1.2
			c0,0.9,0.4,1.4,1,1.4c0.4,0,0.7-0.3,0.9-0.8c0.1,0.1,1.4,0.8,1.5,0.8c-0.1,0.2-0.2,0.3-0.4,0.5c-0.8,0.8-1.7,0.8-2.1,0.8
			c-0.9,0-1.6-0.3-2.1-0.8c-0.4-0.5-0.7-1.2-0.7-1.9c0-1.6,1-2.8,2.6-2.8C-1-26.3-0.3-25.7,0-25.4"/>
	</g>
	<g id="g5977" transform="matrix(5.2716063,0,0,-5.2716063,778.40272,508.47784)">
		<path id="path5979" d="M0-25.4L0-25.4L0-25.4c0.2,0.1,0.3,0.1,0.5,0.1l0.1,0c0.2,0.1,0.4,0.1,0.6,0.2l0.1,0v-0.1
			c0-0.2,0-0.4-0.1-0.6c-0.2-0.4-0.7-0.6-1-0.6c-0.4,0-0.6,0.2-0.6,0.4C-0.5-25.8-0.4-25.6,0-25.4 M-0.4-27.6c0.9,0,1.4,0.3,1.6,0.5
			L1.3-27v-0.5h1.8C3-27.3,3-27.2,3-26.9v2.8c0,0.3,0,0.7-0.3,1.1c-0.3,0.4-1,0.7-2.1,0.7c-0.8,0-1.4-0.2-1.8-0.4
			c-0.7-0.3-0.8-0.9-0.9-1.3c0.1,0,1.7,0,1.8,0c0.1,0.4,0.3,0.5,0.7,0.5c0.6,0,0.7-0.3,0.8-0.6l0-0.1l-0.1,0
			c-0.3-0.1-0.5-0.1-1.1-0.2c-0.9-0.1-1.4-0.2-1.9-0.6c-0.3-0.3-0.4-0.6-0.4-1C-2.2-26.7-1.7-27.6-0.4-27.6"/>
	</g>
	<g id="g5981" transform="matrix(5.2716063,0,0,-5.2716063,817.50539,504.50676)">
		<path id="path5983" d="M0-25.4v-2.8h1.9v3.2c0,0.3,0,1.1-0.5,1.6C1.1-23.1,0.7-23,0.1-23c-1.1,0-1.4-0.5-1.6-0.8l-0.1-0.2v0.8
			h-1.8v-5.1h1.9v2.7c0,0.2,0,0.9,0.8,0.9C0-24.6,0-25.2,0-25.4"/>
	</g>
	<g id="g5985" transform="matrix(5.2716063,0,0,-5.2716063,695.93751,556.5148)">
		<path id="path5987" d="M0-25.4c-0.2,0.4-0.3,0.8-0.3,1.4c0,0.3,0,1.1,0.5,1.6c0.1,0.1,0.5,0.4,1,0.4c0.9,0,1.3-0.8,1.5-1.2
			c0.1,0.1,1.6,0.8,1.7,0.9c-0.1,0.2-0.3,0.6-0.6,0.8c-0.7,0.7-1.7,1.1-2.7,1.1c-1.1,0-2-0.4-2.6-1.2c-0.6-0.7-0.9-1.6-0.9-2.6
			c0-0.9,0.3-1.9,0.9-2.5c0.6-0.7,1.6-1.1,2.7-1.1c1,0,2,0.4,2.6,1c0.3,0.3,0.5,0.7,0.7,1c-0.1,0.1-1.6,0.8-1.8,0.9
			c-0.3-0.9-1-1.2-1.5-1.2C0.7-26.1,0.3-25.9,0-25.4"/>
	</g>
	<g id="g5989" transform="matrix(5.2716063,0,0,-5.2716063,757.89461,561.68998)">
		<path id="path5991" d="M0-25.4c-0.9,0-1,0.9-1,1.4c0,0.5,0.1,1.4,1,1.4c0.3,0,0.5-0.1,0.7-0.2C0.9-23.1,1-23.5,1-24
			C1-25.2,0.5-25.4,0-25.4 M2.1-22c-0.2,0.2-0.9,0.7-2.1,0.7c-0.9,0-1.7-0.3-2.2-0.8c-0.5-0.5-0.7-1.2-0.7-2c0-0.7,0.2-1.4,0.7-1.9
			c0.5-0.5,1.2-0.8,2.2-0.8c0.9,0,1.7,0.3,2.2,0.8c0.5,0.5,0.8,1.2,0.8,2C2.9-23.3,2.6-22.5,2.1-22"/>
	</g>
	<g id="g5993" transform="matrix(5.2716063,0,0,-5.2716063,797.42318,552.03448)">
		<path id="path5995" d="M0-25.4c-0.2,0.1-0.5,0.2-1.3,0.4l0,0c-0.7,0.2-0.8,0.2-0.8,0.4c0,0.1,0.1,0.3,0.5,0.3c0.5,0,1-0.3,1.4-0.5
			c0.1,0.1,0.9,0.8,1,0.9c-0.2,0.2-0.6,0.5-1.3,0.6c-0.4,0.1-0.8,0.1-1.1,0.1c-0.8,0-1.4-0.2-1.7-0.6C-3.8-24-4-24.5-4-24.9
			c0-1,0.9-1.3,1.4-1.5c0.5-0.1,0.9-0.2,1-0.2c0.2,0,0.6-0.1,0.6-0.4c0-0.3-0.3-0.4-0.6-0.4c-0.3,0-0.5,0.1-0.8,0.2
			c-0.4,0.2-0.6,0.4-0.8,0.5c-0.1-0.1-0.9-0.9-1-1c0.4-0.3,1.3-1,2.7-1c1.6,0,2.3,0.9,2.3,1.9C0.8-26.2,0.5-25.7,0-25.4"/>
	</g>
	<g id="g5997" transform="matrix(5.2716063,0,0,-5.2716063,825.5483,552.03448)">
		<path id="path5999" d="M0-25.4c-0.2,0.1-0.5,0.2-1.3,0.4l0,0c-0.7,0.2-0.8,0.2-0.8,0.4c0,0.1,0.1,0.3,0.5,0.3c0.5,0,1-0.3,1.4-0.5
			c0.1,0.1,0.9,0.8,1,0.9c-0.2,0.2-0.6,0.5-1.3,0.6c-0.4,0.1-0.8,0.1-1.1,0.1c-0.8,0-1.4-0.2-1.7-0.6C-3.8-24-4-24.5-4-24.9
			c0-1,0.9-1.3,1.4-1.5c0.5-0.1,0.9-0.2,1.1-0.2c0.2,0,0.6-0.1,0.6-0.4c0-0.3-0.3-0.4-0.6-0.4c-0.3,0-0.5,0.1-0.8,0.2
			c-0.4,0.2-0.6,0.4-0.8,0.5c-0.1-0.1-0.9-0.9-1-1c0.4-0.3,1.3-1,2.7-1c1.6,0,2.3,0.9,2.3,1.9C0.8-26.2,0.5-25.7,0-25.4"/>
	</g>
	<g id="g6001" transform="matrix(5.2716063,0,0,-5.2716063,731.45754,540.78808)">
		<path id="path6003" d="M0-25.4h-1.8v-5.1h1.9v2.4v0c0,0.3,0,1.2,1.3,1.2c0.1,0,0.3,0,0.4,0v1.6c-0.7,0-1.1-0.1-1.7-0.6L0-26V-25.4
			z"/>
	</g>
</g>
</svg>
