<svg xmlns="http://www.w3.org/2000/svg" viewBox="0 0 499 143" id="logo">
  <g id="logo_Icons" fill="none" fill-rule="evenodd" stroke="none" stroke-width="1">
    <g id="logo_Frontend" fill="currentColor" fill-rule="nonzero" transform="translate(-1500 -1650)">
      <g id="logo_sundance-MR" transform="translate(1500 1650)">
        <path id="logo_Path" d="M176.236842 85.3947368C175.368421 84.7894737 172.289474 84.75 172.289474 81.7236842L172.289474 56.9473684C172.289474 50.3684211 171.447368 46.4210526 167.986842 42.75 163.952091 38.6968044 158.441983 36.4595108 152.723684 36.5526316 145.302632 36.5526316 138.460526 41.4210526 136.039474 44.3552632 135.75 44.7236842 135.342105 44.5526316 135.447368 44.1973684 135.552632 43.8421053 135.618421 40.6447368 135.710526 39.9210526 136.118421 37.2894737 133.868421 35.9736842 132.131579 37.1710526L122.684211 43.9342105C121.844427 44.4090912 121.311377 45.2858846 121.276316 46.25 121.276316 46.9342105 121.592105 47.4736842 122.092105 47.5657895 124.723684 47.7894737 125.776316 48.8157895 125.776316 50.9736842L125.776316 81.7105263C125.776316 84.75 122.684211 84.7763158 121.828947 85.3815789 121.315789 85.7236842 121.289474 86.5394737 121.289474 87.2105263 121.289474 88.2105263 121.618421 88.8026316 122.460526 88.8026316L138.763158 88.8026316C139.605263 88.8026316 139.934211 88.1973684 139.934211 87.1973684 139.934211 86.5263158 139.934211 85.7236842 139.407895 85.3684211 138.539474 84.7631579 135.460526 84.7368421 135.460526 81.6973684L135.460526 49.6184211C135.460526 47.9605263 135.723684 47.0657895 137.289474 46.3947368 140.909959 44.9170426 144.787028 44.1702484 148.697368 44.1973684 154.921053 44.1973684 158.565789 45.7368421 160.539474 48.5 162.118421 50.6315789 162.671053 53.4473684 162.671053 60.0263158L162.671053 81.7236842C162.671053 84.75 159.578947 84.7894737 158.723684 85.3947368 158.210526 85.7368421 158.184211 86.5394737 158.184211 87.2105263 158.184211 88.2105263 158.526316 88.8157895 159.355263 88.8157895L175.671053 88.8157895C176.5 88.8157895 176.828947 88.2236842 176.828947 87.2236842 176.763158 86.5526316 176.75 85.7368421 176.236842 85.3947368zM371.434211 81.7631579L371.434211 56.9868421C371.434211 50.4078947 370.592105 46.4605263 367.105263 42.7894737 363.089888 38.7234038 357.581938 36.4831236 351.868421 36.5921053 344.447368 36.5921053 337.592105 41.4736842 335.184211 44.4078947 334.881579 44.7763158 334.473684 44.5921053 334.605263 44.2368421 334.736842 43.8815789 334.763158 40.6973684 334.868421 39.9605263 335.25 37.3289474 333.013158 36.0131579 331.263158 37.2236842L321.763158 43.9736842C320.921317 44.4528875 320.388352 45.3345214 320.355263 46.3026316 320.355263 46.9736842 320.671053 47.5263158 321.171053 47.6184211 323.802632 47.8552632 324.842105 48.9342105 324.842105 51.0394737L324.842105 81.7631579C324.842105 84.7763158 321.763158 84.8289474 320.894737 85.4210526 320.394737 85.7763158 320.355263 86.5789474 320.355263 87.25 320.355263 88.25 320.697368 88.8421053 321.526316 88.8421053L337.855263 88.8421053C338.684211 88.8421053 339.013158 88.25 339.013158 87.2631579 339.013158 86.5921053 339.013158 85.7763158 338.473684 85.4210526 337.605263 84.8289474 334.526316 84.7763158 334.526316 81.7631579L334.526316 49.6578947C334.526316 48 334.776316 47.1052632 336.355263 46.4342105 339.974665 44.9542784 343.853068 44.2117007 347.763158 44.25 353.986842 44.25 357.631579 45.7763158 359.605263 48.5263158 361.171053 50.6842105 361.736842 53.4868421 361.736842 60.0526316L361.736842 81.7631579C361.736842 84.7894737 358.644737 84.8289474 357.789474 85.4342105 357.276316 85.7763158 357.25 86.5921053 357.25 87.2631579 357.25 88.25 357.592105 88.8552632 358.407895 88.8552632L374.736842 88.8552632C375.552632 88.8552632 375.894737 88.25 375.894737 87.2631579 375.894737 86.5921053 375.894737 85.7763158 375.368421 85.4342105 374.513158 84.8289474 371.434211 84.7894737 371.434211 81.7631579zM434.789474 75.5657895C434.303873 75.3114895 433.71149 75.384882 433.302632 75.75 428.8673 79.7101545 423.143151 81.9221825 417.197368 81.9736842 405.723684 81.9736842 396.697368 73.5394737 396.710526 59.7631579 396.710526 49.9736842 403.973684 41.8815789 412.960526 41.8815789 419.986842 41.8815789 425.157895 45.4078947 425.986842 48.7105263 427.052632 53.0131579 427.184211 54.1315789 428.618421 54.1315789 430.052632 54.1315789 430.302632 53.2894737 431 51.3421053 431.697368 49.3947368 432.789474 46.3815789 433.394737 45 433.842105 43.9210526 433.394737 43.4210526 432.381579 42.5263158 427.986842 38.6578947 422.013158 36.5921053 413.776316 36.5921053 400.315789 36.5921053 388.25 49.4473684 388.25 63.5657895 388.25 79.7105263 400.578947 89.75 413.736842 89.75 422.801576 90.0056887 431.34399 85.5175552 436.276316 77.9078947 436.907895 76.9736842 435.684211 76 434.789474 75.5657895zM11.1052632 48.5921053C11.1052632 44.0526316 13.6052632 41.3552632 19 41.3552632 22.9473684 41.3552632 26.7763158 43.9868421 28.7894737 46.2631579 31.1710526 48.9868421 31.9605263 49.8947368 33.2763158 49.4078947 34.5921053 48.9210526 34.4868421 48.0921053 34.3552632 45.9605263 34.2236842 43.8289474 34.1184211 41.7368421 34.1052632 40.2105263 34.1052632 39.0394737 33.4868421 38.6710526 32.1973684 38.25 28.1613535 36.9964687 23.9488258 36.4054706 19.7236842 36.5 8.80263158 36.5 2.78947368 44.7368421 2.77631579 51.5263158 2.77631579 68.6315789 29.5526316 65.6315789 29.5526316 76.1447368 29.5526316 82.1578947 25.9078947 84.6973684 21.0657895 84.6973684 15.4071295 84.6743054 9.99599599 82.3742179 6.05263158 78.3157895 3.42105263 75.5921053 2.57894737 74.6842105 1.31578947 75.1710526.0526315789 75.6578947.210526316 76.4868421.513157895 78.6184211.815789474 80.75 1.10526316 82.8947368 1.22368421 84.3684211 1.32894737 85.5394737 1.86842105 86.1184211 3.11842105 86.6973684 8.12704469 88.8351022 13.5443324 89.8457902 18.9868421 89.6578947 28.7236842 89.6578947 37.5394786 82.4736842 37.5394786 73.7631579 37.5526316 56.1710526 11.0921053 60.6184211 11.1052632 48.5921053z"></path>
        <path id="logo_Shape" d="M496.289474 73.4473684C495.770269 73.2407641 495.177024 73.4079514 494.842105 73.8552632 490.597742 79.1851929 484.155531 82.2900478 477.342105 82.2894737 469.342105 82.2894737 462.697368 76.8552632 459.407895 69.1315789L458.776316 69.3552632 458.776316 69.3552632 459.394737 69.1447368 459.394737 69.1447368 495.052632 56.5789474C497.421053 55.7105263 497.907895 55.2631579 497.907895 54.3552632 497.907895 50.5263158 489.789474 36.6446286 474.618421 36.6446286 463.473684 36.6052632 449 47.3684211 449 63.5789474 449 79.7894737 460.684211 89.7631579 473.842105 89.7631579 485.684211 89.7631579 493.578947 84.6973684 498.078947 75.5263158 498.592105 74.5263158 497.236842 73.75 496.289474 73.4473684zM458 65L458 65C457.448656 62.7744967 457.170292 60.4901494 457.171051 58.1973684 457.171051 49.2368421 463.842105 42.8289474 471.776316 42.8289474 478.969672 43.1388916 485.287483 47.7026174 487.842105 54.4342105L458 64.9605263 458 65zM307.921053 84.3157895C307.531257 84.312853 307.145373 84.3936195 306.789474 84.5526316 306.190914 84.7451515 305.56194 84.8254461 304.934211 84.7894737 304.207347 84.7838146 303.493164 84.5984886 302.855263 84.25 302.035894 83.7291525 301.393627 82.9721952 301.013158 82.0789474 300.546825 81.1742323 300.243928 80.1942717 300.118421 79.1842105 299.875031 77.207171 299.773894 75.2152085 299.815789 73.2236842L299.815789 52.9473684C299.891232 50.1353617 299.445109 47.333709 298.5 44.6842105 297.75235 42.6936687 296.479137 40.9430013 294.815789 39.6184211 293.128847 38.3076647 291.160427 37.4067861 289.065789 36.9868421 280.434211 35.1578947 272.552632 37.1842105 265.315789 41.9342105 264.118421 42.7236842 263.592105 43.25 263.894737 44.3947368 264.302632 45.8421053 265 49.1578947 265.381579 50.9736842 265.763158 52.7894737 266.105263 53.9473684 267.421053 53.9473684 268.736842 53.9473684 269.171053 52.8684211 270.934211 48.5263158 272.25 45.4210526 274.381579 42.1710526 277.736842 40.9605263 281.092105 39.75 285.736842 40.9605263 287.644737 44.1184211 289.176629 46.9296976 289.917824 50.1036478 289.789474 53.3026316 289.862938 54.3814954 289.719777 55.4641529 289.368421 56.4868421 288.878682 57.1851769 288.13022 57.658887 287.289474 57.8026316 286.294499 58.155898 285.279584 58.4502671 284.25 58.6842105 283.092105 58.9605263 281.842105 59.2236842 280.5 59.4605263 278.118421 60.0131579 275.631579 60.6710526 273.052632 61.4605263 270.553559 62.2126561 268.154577 63.2641437 265.907895 64.5921053 263.782483 65.8297499 261.954435 67.5185612 260.552632 69.5394737 259.106231 71.7184062 258.374949 74.2939899 258.460526 76.9078947 258.352539 79.0985476 258.89258 81.2724434 260.013158 83.1578947 260.998861 84.6910359 262.356893 85.9494794 263.960526 86.8157895 265.531713 87.6771293 267.241856 88.256084 269.013158 88.5263158 270.688845 88.7915758 272.382407 88.9279405 274.078947 88.9342105 277.342687 89.0011917 280.579937 88.335757 283.552632 86.9868421 286.613215 85.3710267 289.089285 82.8351254 290.631579 79.7368421 290.790158 80.9180368 291.118088 82.0702235 291.605263 83.1578947 292.081859 84.2664578 292.775272 85.2685518 293.644737 86.1052632 294.589963 86.9999116 295.703667 87.6976542 296.921053 88.1578947 298.380899 88.6992079 299.93031 88.9581873 301.486842 88.9210526 304.273728 89.0442481 307.030739 88.3044502 309.381579 86.8026316 309.263158 85.1447368 308.789474 84.3157895 307.921053 84.3157895zM289.789474 70.5131579C289.811407 72.3704573 289.462489 74.213461 288.763158 75.9342105 288.137569 77.5118876 287.247631 78.9713859 286.131579 80.25 285.068146 81.4514709 283.763492 82.4153907 282.302632 83.0789474 280.892186 83.7325655 279.357156 84.0736833 277.802632 84.0789474 275.626436 84.1273817 273.526803 83.2751501 272 81.7236842 270.328459 79.852203 269.483854 77.3848169 269.657895 74.8815789 269.590255 72.9421078 270.068977 71.0226587 271.039474 69.3421053 271.960559 67.8395029 273.211422 66.5661426 274.697368 65.6184211 276.306599 64.598411 278.05807 63.822443 279.894737 63.3157895 281.855263 62.7763158 283.842105 62.3026316 285.947368 61.9078947L289.789474 61.3157895 289.789474 70.5131579zM243.842105 85.3552632C242.960526 84.75 239.894737 84.7105263 239.894737 81.6710526L239.894737 68.2631579 239.894737 68.2631579 239.894737 7.35526316C239.894737 6.34210526 239.894737 4.25 240.039474 3.52631579 240.434211.986842105 238.368421-.631578947 236.605263.236842105L226.157895 4.94736842C225.263158 5.38157895 224.75 5.92105263 224.75 6.64473684 224.682195 7.25246392 225.010772 7.83542328 225.565789 8.09210526 228.75 8.86842105 230.223684 10.1447368 230.223684 12.3026316L230.223684 39.4736842C226.035321 37.3526391 221.375589 36.3337472 216.684211 36.5131579 202.592105 36.5131579 189.881579 49.1315789 189.881579 63.4736842 189.881579 79.6315789 202.131579 89.6578947 214.434211 89.6578947 219.881449 89.7679385 225.145985 87.6924508 229.052632 83.8947368 229.248406 83.6964622 229.544862 83.6367148 229.802155 83.743679 230.059447 83.8506432 230.226173 84.1029494 230.223684 84.3815789L230.223684 84.3815789C230.195175 85.5384348 230.63673 86.6574565 231.447527 87.4831301 232.258324 88.3088038 233.369133 88.7706304 234.526316 88.7631579L243.236842 88.7631579C244.078947 88.7631579 244.394737 88.1710526 244.394737 87.1578947 244.355263 86.5 244.342105 85.6973684 243.842105 85.3552632zM227.947368 79.5921053C225.427138 81.7918955 222.173128 82.9657808 218.828947 82.8815789 207.355263 82.8947368 199 73.5 199 59.7368421 199 49.8157895 205.855263 42.4605263 214.315789 42.4605263 222.776316 42.4605263 230.25 47.9736842 230.25 53.5263158L230.25 74.5C230.324246 76.4646983 229.471612 78.3502381 227.947368 79.5921053L227.947368 79.5921053z"></path>
        <path id="logo_Path" d="M106.144737,85.3552632 C105.263158,84.75 102.197368,84.7105263 102.197368,81.6710526 L102.197368,68.2631579 L102.197368,68.2631579 L102.197368,53.7894737 L102.197368,53.7894737 L102.197368,43.7105263 C102.184685,42.4323533 102.237386,41.154368 102.355263,39.8815789 C102.736842,37.3552632 100.657895,35.7368421 98.9210526,36.5921053 L88.3947368,41.2894737 C87.5131579,41.7368421 86.9868421,42.2631579 86.9868421,43 C86.9229159,43.6072454 87.2577016,44.1864779 87.8157895,44.4342105 C90.9868421,45.2105263 92.4868421,46.5 92.4736842,48.6710526 L92.4736842,53.8552632 L92.4736842,53.8552632 L92.4736842,76.6184211 C92.4736842,78.2763158 92.2236842,79.25 90.6447368,79.8421053 C87.0076931,81.2297821 83.1555163,81.9690437 79.2631579,82.0263158 C68.1710526,82.0263158 65.2105263,75.4473684 65.2105263,66.6578947 L65.2105263,43.7105263 C65.2105263,42.6973684 65.2105263,40.6052632 65.3552632,39.8815789 C65.7368421,37.3552632 63.6578947,35.7368421 61.9210526,36.5921053 L51.4605263,41.2894737 C50.5657895,41.7368421 50.0394737,42.2631579 50.0394737,43 C49.9755475,43.6072454 50.3103332,44.1864779 50.8684211,44.4342105 C54.0657895,45.2105263 55.5789474,46.5 55.5789474,48.6842105 L55.5789474,69.6052632 C55.5789474,80.3815789 61.7631579,89.6973684 73.9210526,89.6973684 C80.8026316,89.6973684 86.6578947,86.5526316 90.8947368,83.2894737 L91.4210526,82.8684211 C91.6316186,82.7089318 91.9142231,82.6821017 92.15104,82.7991171 C92.3878568,82.9161325 92.5382336,83.1569063 92.5394737,83.4210526 L92.5394737,84.5 C92.5394737,86.861744 94.4540455,88.7763158 96.8157895,88.7763158 L105.526316,88.7763158 C106.355263,88.7763158 106.684211,88.1842105 106.684211,87.1710526 C106.657895,86.5 106.644737,85.6973684 106.144737,85.3552632 Z"></path>
        <polygon id="logo_Path" points="115.539 142.579 111.592 130.961 111.592 142.579 109.118 142.579 109.118 127.553 112.803 127.553 116.671 139.066 120.539 127.553 124.145 127.553 124.145 142.579 121.658 142.579 121.658 130.961 117.711 142.579"></polygon>
        <path id="logo_Shape" d="M139.486842,127.315789 C143.539474,127.315789 146.473684,130.5 146.473684,135.065789 C146.473684,139.631579 143.539474,142.815789 139.486842,142.815789 C135.434211,142.815789 132.486842,139.631579 132.486842,135.065789 C132.486842,130.5 135.421053,127.315789 139.486842,127.315789 Z M139.486842,129.684211 C136.947368,129.684211 135.171053,131.802632 135.171053,135.065789 C135.171053,138.328947 136.947368,140.447368 139.486842,140.447368 C142.026316,140.447368 143.802632,138.328947 143.802632,135.065789 C143.802632,131.802632 142.013158,129.684211 139.486842,129.684211 Z"></path>
        <path id="logo_Path" d="M154.592105,136.618421 L154.592105,127.552632 L157.223684,127.552632 L157.223684,136.526316 C157.223684,139.276316 158.539474,140.473684 160.592105,140.473684 C162.644737,140.473684 163.986842,139.328947 163.986842,136.526316 L163.986842,127.552632 L166.618421,127.552632 L166.618421,136.618421 C166.618421,140.763158 164.157895,142.789474 160.552632,142.789474 C156.947368,142.789474 154.592105,140.789474 154.592105,136.618421 Z"></path>
        <polygon id="logo_Path" points="187.974 142.579 185.632 142.579 178.184 131.579 178.184 142.605 175.553 142.605 175.553 127.553 178.316 127.553 185.355 138.079 185.355 127.553 187.987 127.553"></polygon>
        <polygon id="logo_Path" points="203.513 129.895 203.513 142.579 200.882 142.579 200.882 129.895 196.039 129.895 196.039 127.553 208.395 127.553 208.395 129.895"></polygon>
        <path id="logo_Shape" d="M222.092105,127.552632 L227.789474,142.578947 L225.157895,142.578947 L223.842105,139.144737 L217.355263,139.144737 L216.039474,142.578947 L213.407895,142.578947 L219.092105,127.552632 L222.092105,127.552632 Z M218.144737,136.763158 L222.868421,136.763158 L220.486842,130.486842 L218.144737,136.763158 Z"></path>
        <polygon id="logo_Path" points="238.382 142.579 235.75 142.579 235.75 127.553 238.382 127.553"></polygon>
        <polygon id="logo_Path" points="259.868 142.579 257.526 142.579 250.079 131.579 250.079 142.605 247.447 142.605 247.447 127.553 250.316 127.553 257.355 138.079 257.355 127.553 259.921 127.553"></polygon>
        <path id="logo_Shape" d="M282.263158,142.578947 L279.631579,142.578947 L279.631579,127.552632 L285.631579,127.552632 C288.986842,127.552632 291.078947,129.118421 291.078947,132.157895 C291.203028,134.30079 289.695261,136.194002 287.578947,136.552632 L291.526316,142.578947 L288.460526,142.578947 L284.802632,136.763158 L282.368421,136.763158 L282.263158,142.578947 Z M285.447368,134.460526 C287.381579,134.460526 288.407895,133.618421 288.407895,132.157895 C288.407895,130.697368 287.381579,129.855263 285.447368,129.855263 L282.263158,129.855263 L282.263158,134.460526 L285.447368,134.460526 Z"></path>
        <polygon id="logo_Path" points="309.711 127.553 309.711 129.895 302.171 129.895 302.171 133.658 308.513 133.658 308.513 136.013 302.171 136.013 302.171 140.237 309.711 140.237 309.711 142.579 299.539 142.579 299.539 127.553"></polygon>
        <path id="logo_Path" d="M318.736842,137.960526 C319.624291,139.536815 321.27092,140.534771 323.078947,140.592105 C324.776316,140.592105 326.052632,139.815789 326.052632,138.381579 C326.052632,136.947368 324.473684,136.644737 322.236842,136.092105 C320,135.539474 317.552632,134.881579 317.552632,131.947368 C317.552632,129.013158 319.934211,127.381579 322.973684,127.381579 C325.188552,127.310255 327.290512,128.358762 328.565789,130.171053 L326.592105,131.868421 C325.854835,130.508024 324.428897,129.663585 322.881579,129.671053 C321.276316,129.671053 320.171053,130.486842 320.171053,131.684211 C320.171053,132.881579 321.315789,133.263158 323.342105,133.723684 C325.776316,134.276316 328.684211,134.842105 328.684211,138.105263 C328.684211,141.052632 326.052632,142.881579 322.986842,142.881579 C320.491349,142.943407 318.128647,141.75959 316.684211,139.723684 L318.736842,137.960526 Z"></path>
        <path id="logo_Shape" d="M343.092105 127.315789C347.157895 127.315789 350.078947 130.5 350.078947 135.065789 350.078947 139.631579 347.157895 142.815789 343.092105 142.815789 339.026316 142.815789 336.092105 139.631579 336.092105 135.065789 336.092105 130.5 339.026316 127.315789 343.092105 127.315789zM343.092105 129.684211C340.552632 129.684211 338.776316 131.802632 338.776316 135.065789 338.776316 138.328947 340.552632 140.447368 343.092105 140.447368 345.631579 140.447368 347.407895 138.328947 347.407895 135.065789 347.407895 131.802632 345.618421 129.684211 343.092105 129.684211zM361.105263 142.578947L358.473684 142.578947 358.473684 127.552632 364.473684 127.552632C367.828947 127.552632 369.921053 129.118421 369.921053 132.157895 370.045133 134.30079 368.537366 136.194002 366.421053 136.552632L370.368421 142.578947 367.302632 142.578947 363.644737 136.763158 361.105263 136.763158 361.105263 142.578947zM364.289474 134.460526C366.223684 134.460526 367.25 133.618421 367.25 132.157895 367.25 130.697368 366.223684 129.855263 364.289474 129.855263L361.105263 129.855263 361.105263 134.460526 364.289474 134.460526z"></path>
        <polygon id="logo_Path" points="384.526 129.895 384.526 142.579 381.895 142.579 381.895 129.895 377.053 129.895 377.053 127.553 389.408 127.553 389.408 129.895"></polygon>
      </g>
    </g>
  </g>
</svg>