<?xml version="1.0" encoding="UTF-8"?> <svg xmlns="http://www.w3.org/2000/svg" width="148.935" height="153.654" viewBox="0 0 148.935 153.654"><defs><style>.a{fill:#fff;}</style></defs><g transform="translate(35.229)"><path class="a" d="M163.725,150.9q-7.008-.87-14.056-1.4l-3.723-34.267c4.778-.874,4.162-1.143,4.549-2.466a4.076,4.076,0,0,1,.728-.477,1.637,1.637,0,0,0,.637-1.059v0c.22-1.193-.646-2.026-1.713-2.583l.071-2.938c1.506-.373,3.8-3.316-4.44-5.912l-.33-10.965c1.109-.427,2.573-1.184,3.058-2.273.567-1.118-.156-3.317-.994-4.32-.995-1.159-1.722-.334-3.99-1.015-5.5-1.679-1.969-11.314-13.4-14.179-.022-4.569-.131-5.5-.739-6.546l-.109-12.534c6.277-1.052,3.462-.141,8.5-2.169,2.421-.978,2.745-.994,4.828-.387s2.867.843,5.135-.805a14.4,14.4,0,0,0,1.212-1l-.025-.034.067-.062-.568-.783a5.377,5.377,0,0,1-2.655.525c-1.657-.122-2.589-1.489-6.238-1.489-4.058.007-4.159,1.174-10.129.061l.093-2.007c.724-1.387.525-2.475-1-2.392h0c-1.3.138-1.6,1.2-.823,2.261V60.4c-.947.731-.66,1.865-.773,6.736-8.024,1.324-8.063,5.146-10.042,9.945-2.207,5.261-7.007,4.663-7.66,4.947h0c-.779.392-1.17,2.06-1.178,2.979a3.258,3.258,0,0,0,1.4,2.66c1.016.869.911-.3.822,12.066-1.668.435-5.9,1.526-5.926,3a2.228,2.228,0,0,0,.945,1.919l.089,4.06a2.316,2.316,0,0,0-1.151,1.971c.052.794.813,1.457,1.394,2.029h0a13.64,13.64,0,0,0,2.316,2.414h0a4.731,4.731,0,0,0,1.635.511l-4.418,33.745q-7.891.559-15.742,1.526a.655.655,0,0,0-.571.728c.083.653.087,1.364.819,1.273a300.386,300.386,0,0,1,73.847,0c.732.091.737-.62.819-1.273A.655.655,0,0,0,163.725,150.9ZM124.04,116.666c4.617.118,6.491.079,8.623-.012l.293,8.947-9.418.261Zm-6.076,32.074q-4.265.121-8.525.363l2.009-15.374,7.481,1.344Zm1.608-22.766-7.136.2,1.312-10.03c2.155.186,4.287.305,6.491.4Zm2.72,22.676.72-13.173h10.267l.432,13.229Q128,148.57,122.292,148.649Zm14.847-32.285c1.695-.144,3.3-.319,4.772-.511l1.2,11.892-5.7-1.57Zm.92,32.474-.378-13.361h6.212l1.386,13.719Q141.672,148.972,138.06,148.837Z" transform="translate(-88.806 -37.419)"></path><g transform="translate(-70.1 -37.419)"><path class="a" d="M35.578,230.382l-.707-7.92,31.415-3.427c-.2,2.993-5.322,3.2-5.322,3.2-1.811.2-14.811,1.562-15.064,1.591l1.448,16.169c.091,1.027.5,1.351,1.567,1.229l1.709-.2.225,2.515L40.078,244.77l-.225-2.513,1.765-.2c1.071-.123,1.408-.531,1.315-1.561l-1.443-16.168c-2.588.3-3.334,1.276-3.485,3.336,0,0-.048,2.645-2.428,2.716" transform="translate(0 -62.988)"></path><path class="a" d="M60.126,235.12l.308,3.594c.057.705.343.951,1.08.87l.79-.084.149,1.711-6.791.744-.146-1.715.959-.105c.741-.083.974-.382.911-1.09l-.723-8.52c-.063-.729-.342-.955-1.081-.872l-.962.1-.146-1.732,6.79-.742.149,1.737-.79.087c-.742.083-.977.359-.915,1.091l.257,3.022,4.912-.53-.259-3.026c-.062-.734-.343-.956-1.081-.877l-.794.085-.144-1.731,6.792-.742.146,1.735-.957.105c-.742.08-.982.359-.916,1.092l.725,8.513c.059.713.342.958,1.08.877l.958-.1.148,1.709-6.792.74-.148-1.713.794-.084c.739-.084.973-.381.914-1.091l-.306-3.592-4.911.536" transform="translate(-6.798 -65.542)"></path><path class="a" d="M79.475,232.98a5.959,5.959,0,0,0-.347,1.624c.02.31.159.359.792.308l.4-.035.087,1.3-4.08.347-.087-1.306c.73-.062,1.095-.17,1.355-1.006.137-.479.34-.935.475-1.43l1.967-6.995,2.09-.175,3.346,7.2c.547,1.142.7,1.566,1.853,1.468l.085,1.3-5.082.434-.088-1.307.48-.041c.551-.042.79-.191.771-.473a5.967,5.967,0,0,0-.6-1.512l-3.42.292m1.294-4.89-.942,3.517,2.459-.21Z" transform="translate(-14.347 -65.271)"></path><path class="a" d="M123.477,226.1c0-1.11,1.016-1.869,2.5-1.874a3.632,3.632,0,0,1,2.952,1.668,4.015,4.015,0,0,1,.577,1.994l1.723,0,0-5.035-1.451,0-.274.944a4.8,4.8,0,0,0-3.62-1.374c-3.078.007-5.022,1.819-5.014,4.692.007,2.77,1.544,3.542,3.664,4.059l1.869.5c2.212.558,2.545.813,2.547,1.858s-.958,1.811-2.348,1.813a4.065,4.065,0,0,1-3.287-1.564,4.833,4.833,0,0,1-.73-2.118l-1.741.005.008,3.425c-.892-.018-2.287-.158-2.827-.837a4.939,4.939,0,0,1-.382-.518l-3.342-5.426,2.031-2.05c1.178-1.185,1.67-1.517,3.154-1.558l-.039-1.8-6.579.186.037,1.8,1.133-.035c.406-.009.558.072.563.3a.97.97,0,0,1-.357.641l-4.072,3.935-.084-3.839c-.016-.734.239-.995.982-1.011l.8-.025-.039-1.736-6.805.223-.018,0-5.378.31.08,1.736.871-.05c.742-.04,1.01.2,1.044.929l.31,6.873-6.49-9.246-5.093.292.082,1.738.963-.056c.738-.042,1.009.2,1.044.93l.383,8.546c.029.709-.214,1-.957,1.042l-.96.053.075,1.722,5.873-.338-.08-1.721-.96.057c-.739.043-1.015-.218-1.044-.926l-.32-7.1,6.645,9.445,2.981-.169-.507-11.252c-.029-.732.218-1,.956-1.042l.691-.072h.029l.766-.025c.739-.016,1,.225,1.023.959l.186,8.557c.014.712-.238.992-.977,1.012l-.964.032.036,1.718,6.821-.192-.037-1.72-.8.025c-.743.018-1.007-.247-1.022-.96l-.05-2.265,1.723-1.683,2.1,3.341c.137.293.458.638.466.993.008.27-.212.4-.675.414l-.706.023.039,1.8,9.145-.207.389-1.129a5.631,5.631,0,0,0,3.971,1.558c3.267-.007,5.078-1.713,5.071-4.752-.011-5.835-8.257-3.358-8.264-6.441" transform="translate(-19.239 -64.162)"></path><path class="a" d="M166.777,228.668l-1.67-.039c-.163-2.371-1.526-3.869-3.527-3.918-2.21-.044-3.58,1.957-3.635,5.376-.061,3.355,1.186,5.253,3.506,5.3,1.43.035,2.534-.717,2.553-1.728l.017-1.132c.012-.732-.243-.988-.982-1.006l-1.022-.023.029-1.739,6.805.149-.029,1.742c-1.521-.033-1.8-.019-1.818.945l-.076,4.57-1.76-.034-.37-1.247a5.036,5.036,0,0,1-3.977,1.589c-3.8-.081-6.292-3.078-6.214-7.46.076-4.528,2.758-7.49,6.707-7.4a5.552,5.552,0,0,1,3.686,1.55l.411-1.168,1.462.029-.1,5.645" transform="translate(-41.527 -64.229)"></path><path class="a" d="M208.8,225.726l-.14,1.738.87.086c.739.078.973.357.917,1.088l-.554,6.852L204.629,225.3l-4.962-.51v-.016l-5.178-.419v.025l-4.847-.3-.081,1.8.96.063c.536.032.745.255.728.694a3.025,3.025,0,0,1-.283.946l-2.739,6.853-2.12-7.5a3.193,3.193,0,0,1-.166-.79c.018-.356.227-.47.856-.432l.892.056.08-1.8-6.941-.418.052.013-5.073-.169-.088,1.813.731.025c.568.018.756.216.743.775l-.17,6.51c-.017.543-.218.746-.784.725l-.732-.022-.033,1.306,5.189.174.036-1.3-.609-.023c-.563-.021-.755-.233-.74-.774l.17-6.514c.014-.557.218-.743.781-.726l.611.021v-.014c1.209.076,1.385.208,1.867,1.725l3.3,10.783,2.772.169,3.992-9.781c.48-1.229.432-2.156,2.193-2.056l0-.063.1.01c.561.05.747.253.712.814l-.406,6.5c-.037.541-.243.729-.813.686l-.728-.057-.08,1.306,5.18.418.08-1.308-.6-.048c-.569-.045-.748-.271-.717-.807l.41-6.5c.035-.558.246-.735.809-.689l.428.032v0l.961.1c.737.075.977.357.92,1.087l-.683,8.522c-.061.71-.34.954-1.076.88l-.963-.1-.135,1.713,5.854.6.136-1.709-.957-.1c-.741-.075-.98-.375-.923-1.088l.57-7.079,5.4,10.412,2.979.306.9-11.22c.055-.732.334-.955,1.074-.881l.72.074.137-1.73-5.519-.572" transform="translate(-48.764 -64.503)"></path><path class="a" d="M110.775,261.623c.022.733.3.976,1.058.948l1.193-.052.054,1.788-7.365.29-.055-1.76.988-.039c.759-.034,1.016-.322.993-1.051l-.27-8.762c-.021-.752-.3-1-1.059-.971l-.988.041-.05-1.78,8.35-.334c2.886-.114,4.432,1.244,4.513,3.9s-1.437,4.038-4.645,4.165l-2.827.111.109,3.5m1.41-5.41c1.879-.072,2.714-.777,2.666-2.278-.053-1.588-.849-2.158-2.971-2.076l-1.409.057.138,4.362Z" transform="translate(-24.418 -73.705)"></path><path class="a" d="M131.2,249.389c2.757-.05,4.655,1.894,4.7,4.8.044,3.232-1.664,5.154-4.641,5.208-2.811.052-4.6-1.839-4.648-4.882-.044-3.1,1.726-5.067,4.594-5.125m.058,8.781c1.536-.032,2.389-1.382,2.355-3.757-.032-2.425-.913-3.835-2.388-3.806-1.531.026-2.41,1.439-2.376,3.8C128.882,256.815,129.764,258.2,131.259,258.171Z" transform="translate(-31.816 -73.516)"></path><path class="a" d="M162.178,249.853h0l-5.8-.179-.027,1.786.9.013c.76.016,1.021.279,1.01,1.027l-.093,7.046-6.079-9.947-5.223-.091v.014l-5.144-.1-.027,1.71.734.011c.561.012.757.209.748.764l-.1,6.517c-.007.542-.207.745-.77.733l-.735-.013-.02,1.308,5.193.1.02-1.306-.607-.013c-.566-.012-.758-.223-.752-.763l.095-6.514c.009-.563.211-.747.777-.736l.545.012v0l1,.071c.763.014,1.025.276,1.014,1.033l-.119,8.763c-.009.737-.283,1.007-1.041.992l-.989-.014-.022,1.76,6.022.106.025-1.762-.992-.016c-.758-.014-1.022-.3-1.008-1.031l.1-7.284,6.227,10.171,3.057.051.159-11.538c.011-.751.278-1,1.04-.992l.77.031-.153,3.884,1.732.074c.224-2.656.491-3.759,2.942-3.649l-.342,9.7c-.028.734-.3.973-1.063.941l-1.25-.056-.067,1.785,7.652.343.063-1.784-1.217-.05c-.76-.038-1.015-.306-.99-1.035l.344-9.708c.191.008.381,0,.533,0,1.479.069,2.2,1.241,2.122,3.475-.005.062-.008.193-.034.433l1.741.076.2-5.626-12.1-.531" transform="translate(-36.998 -73.529)"></path><rect class="a" width="7.062" height="1.431" transform="translate(95.865 187.098)"></rect><path class="a" d="M250.475,232.756l-2.167-.236c.063-3.515-1.05-5.244-3.7-5.641-2.924-.441-5.779,2.429-6.4,7.425-.6,4.879.412,7.715,3.483,8.179,1.891.284,4.421-.614,4.566-2.093l.255-1.662c.1-1.076-.1-1.323-1.178-1.428l-1.606-.112.262-2.3,8.737.8-.246,2.257c-2.019-.3-2.385-.028-2.522,1.383l-.68,6.4-2.33-.118-.306-1.821a6.441,6.441,0,0,1-5.475,1.673c-5.478-.577-8.411-5.617-7.372-11.994,1.2-7.345,5.416-10.041,10.668-9.35a5.947,5.947,0,0,1,4.328,2.621l.759-1.59,1.862.234-.937,7.378" transform="translate(-68.919 -64.714)"></path></g></g></svg> 