<?xml version="1.0" encoding="utf-8"?>
<!-- Generator: Adobe Illustrator 25.0.0, SVG Export Plug-In . SVG Version: 6.00 Build 0)  -->
<svg version="1.1" id="Layer_1" xmlns="http://www.w3.org/2000/svg" xmlns:xlink="http://www.w3.org/1999/xlink" x="0px" y="0px"
	 viewBox="0 0 360 360" style="enable-background:new 0 0 360 360;" xml:space="preserve">
<style type="text/css">
	.st0{fill:#0D183F;stroke:#355B8C;stroke-width:9.6099;stroke-miterlimit:10;}
	.st1{fill:#474F7D;}
	.st2{fill:#355B8C;}
	.st3{fill:none;stroke:#000000;stroke-width:14.4148;stroke-linecap:round;stroke-miterlimit:10;}
	.st4{fill:none;stroke:#F26F63;stroke-width:14.4148;stroke-linecap:round;stroke-miterlimit:10;}
	.st5{fill:#FFFFFF;}
</style>
<g>
	<path class="st0" d="M221.79,326.62c-11.46,3.15-24.1,4.85-38.06,4.85c-28.66,0-52.04-7.21-71.11-19.08
		C29.09,260.31,28.44,118.18,28.8,97.06c0.02-1.08,1.27-1.66,2.11-0.98l61.74,49.68l75.89,61.07l4.85,3.92l0.1,0.07l5.24-3.89
		l10.09-7.47l1.78-1.3L327.45,96.82c1.39-1.03,3.39-0.1,3.46,1.63C332.21,126.8,334.95,295.79,221.79,326.62z"/>
	<polygon class="st1" points="113.62,28.53 219.48,172.16 165.32,209.04 60.28,117.55 	"/>
	<path class="st2" d="M221.79,326.62c-11.46,3.15-24.1,4.85-38.06,4.85c-28.66,0-52.04-7.21-71.11-19.08
		c2.07-2.11,9.49-8.46,27.27-11.96c21.55-4.28,31.83-24.22,26.14-36.33c-5.69-12.08,22.78-28.47,24.19-38.44
		c1.03-7.11-6.9-14.9-11.48-18.74c-0.02-0.02-0.02-0.05-0.05-0.05c-1.8-1.51-3.1-2.43-3.1-2.43s-0.31-2.98,8.14-5.55
		c1.39-0.43,3.15-0.19,5.09,0.55c9.71,3.72,24.19,20.18,24.19,29.07c0,10.67-21.36,14.94-18.52,33.47
		c2.86,18.5,12.81,10.67,24.99,32.02C224.67,303.12,224.14,315.47,221.79,326.62z"/>
	<path class="st3" d="M168.88,202.27"/>
	<polyline class="st4" points="31.18,96.65 173.38,210.75 328.41,97.38 	"/>
</g>
<path class="st5" d="M113.81,40.41L90.7,79.67c0,0,11.26,18.81,30.37,14.96S139,112.7,139,113.89c0,1.19,3.7,8.15,11.26,7.56
	c7.56-0.59,14.52-10.67,13.33-12.15S113.81,40.41,113.81,40.41z"/>
</svg>
