<?xml version="1.0" encoding="utf-8"?>
<!-- Generator: Adobe Illustrator 25.0.1, SVG Export Plug-In . SVG Version: 6.00 Build 0)  -->
<svg version="1.0" id="Layer_1" xmlns="http://www.w3.org/2000/svg" xmlns:xlink="http://www.w3.org/1999/xlink" x="0px" y="0px"
	 viewBox="0 0 328 234" style="enable-background:new 0 0 328 234;" xml:space="preserve">
<style type="text/css">
	.st0{fill:#275D38;}
</style>
<path class="st0" d="M86.9,164.9h2.8v13.6c0,1.5-1.2,2.8-2.8,2.8h-5.6c-1.5,0-2.8-1.2-2.8-2.8v-13.6h2.8V178c0,0.3,0.3,0.5,0.5,0.6
	h3.6c0.3,0,0.5-0.3,0.5-0.6L86.9,164.9L86.9,164.9z"/>
<polygon class="st0" points="110.8,181.1 108,181.1 101.9,170.7 101.9,181.1 99.1,181.1 99.1,164.9 101.9,164.9 108,175.5 
	108,164.9 110.8,164.9 "/>
<rect x="120.3" y="164.9" class="st0" width="2.8" height="16.1"/>
<polygon class="st0" points="138.7,181.1 135.6,181.1 130.9,164.9 133.6,164.9 137.3,176.6 140.6,164.9 143.4,164.9 "/>
<polygon class="st0" points="150.9,164.9 160.7,164.9 160.7,167.7 153.7,167.7 153.7,171.6 160.1,171.6 160.1,174.4 153.7,174.4 
	153.7,178.5 160.7,178.5 160.7,181.1 150.9,181.1 "/>
<path class="st0" d="M178.5,168.2c0-0.3-0.3-0.5-0.6-0.6h-4.7v4.7h4.7c0.3,0,0.5-0.3,0.6-0.6V168.2z M176.2,174.9h-3.1v6.4h-2.8
	v-16.4h8.4c1.5,0,2.8,1.2,2.8,2.8v4.7c0.1,1.2-0.8,2.3-2,2.5l3.1,6.4h-3.3L176.2,174.9z"/>
<path class="st0" d="M193.5,173.5c-1.4-0.6-2.5-1.1-2.5-2.5v-3.3c0-1.4,1.1-2.7,2.5-2.8h5c1.5,0,2.8,1.2,2.8,2.8v1.9l-2.8,0.6v-1.7
	c0-0.3-0.2-0.5-0.5-0.5h-3.3c-0.3,0-0.5,0.3-0.6,0.6v1.9c0,0.3,0.3,0.6,0.6,0.8c1.4,0.3,2.8,0.8,4.5,1.1c1.4,0.3,2.5,1.1,2.5,2.5
	v3.6c0,1.4-1.1,2.7-2.5,2.8h-5.3c-1.5,0-2.8-1.2-2.8-2.8v-1.9l2.8-0.6v1.7c0,0.3,0.3,0.5,0.6,0.6h3.3c0.3,0,0.5-0.3,0.6-0.6v-2.2
	c0-0.3-0.3-0.5-0.6-0.6L193.5,173.5"/>
<rect x="210.5" y="164.9" class="st0" width="2.8" height="16.1"/>
<polygon class="st0" points="220.5,164.9 232.2,164.9 232.2,167.7 227.8,167.7 227.8,181.1 225,181.1 225,167.7 220.5,167.7 "/>
<polygon class="st0" points="242.8,171.3 245.9,164.9 248.9,164.9 244.2,174.6 244.2,181.1 241.4,181.1 241.4,174.6 236.4,164.9 
	239.5,164.9 "/>
<path class="st0" d="M86,53.2h2.5v12.2c0,1.4-1.1,2.5-2.5,2.5c0,0,0,0,0,0h-4.7c-1.3,0-2.3-1-2.2-2.3c0-0.1,0-0.1,0-0.2V53.2h2.5
	v11.7c0,0.3,0.3,0.5,0.5,0.5h3.3c0.3,0,0.5-0.3,0.6-0.5L86,53.2L86,53.2z"/>
<polygon class="st0" points="94.4,53.2 105,53.2 105,55.7 101.1,55.7 101.1,68 98.3,68 98.3,55.7 94.4,55.7 "/>
<path class="st0" d="M113,62.4h3.3l-1.7-5.6L113,62.4z M120.8,68h-2.8l-1.1-3.1h-5l-1.1,3.1h-2.5l5-14.8h2.5L120.8,68z"/>
<polygon class="st0" points="135.3,61.6 130.6,61.6 130.6,68 127.8,68 127.8,53.2 130.6,53.2 130.6,59.4 135.3,59.4 135.3,53.2 
	138.1,53.2 138.1,68 135.3,68 "/>
<polygon class="st0" points="162.3,68 159.8,68 155.4,53.2 157.9,53.2 160.9,64.1 164.3,53.2 166.8,53.2 "/>
<path class="st0" d="M175.7,62.4h3.3l-1.7-5.6L175.7,62.4z M183.5,68h-2.8l-1.1-3.1h-5l-1.1,3.1H171l5-14.8h2.5L183.5,68z"/>
<polygon class="st0" points="190.7,53.2 193.5,53.2 193.5,65.5 199.4,65.5 199.4,68 190.7,68 "/>
<polygon class="st0" points="206.9,53.2 209.7,53.2 209.7,65.5 215.5,65.5 215.5,68 206.9,68 "/>
<polygon class="st0" points="222.8,53.2 231.7,53.2 231.7,55.7 225.5,55.7 225.5,59.4 231.1,59.4 231.1,61.9 225.5,61.9 225.5,65.5 
	231.7,65.5 231.7,68 222.8,68 "/>
<polygon class="st0" points="243.6,59.1 246.4,53.2 249.2,53.2 244.8,62.1 244.8,68 242.2,68 242.2,62.1 237.8,53.2 240.6,53.2 "/>
<rect x="73.5" y="152.9" class="st0" width="181" height="3.3"/>
<rect x="73.5" y="189.7" class="st0" width="181" height="6.4"/>
<rect x="73.5" y="37.9" class="st0" width="181" height="6.4"/>
<rect x="73.5" y="76.9" class="st0" width="181" height="3.3"/>
<path class="st0" d="M252,185.8v2.5h-0.6v-3.6h0.6l1.1,2.2l1.1-2.2h0.3v3.6h-0.6v-2.5l-0.8,1.9h-0.3L252,185.8z M248.4,184.7h2.5
	v0.6h-1.1v3.1h-0.6v-3.1h-1.1L248.4,184.7L248.4,184.7z"/>
<polygon class="st0" points="179,90 164,130.9 148.7,90 136.7,90 156.2,143.2 171.5,143.2 191,90 "/>
<polygon class="st0" points="83.2,143.2 124.7,143.2 129.5,130.9 129.5,90 105.5,90 105.5,101.4 117.2,101.4 117.2,130.9 
	90.8,130.9 90.8,90 78.8,90 78.8,130.9 "/>
<polygon class="st0" points="237,130.9 210.5,130.9 210.5,90 198.5,90 198.5,130.9 203,143.2 244.5,143.2 249.2,130.9 249.2,90 
	237,90 "/>
</svg>
